<svg version="1.1" id="Layer_1" xmlns="http://www.w3.org/2000/svg" xmlns:xlink="http://www.w3.org/1999/xlink" x="0px" y="0px"
	 width="100%" viewBox="0 0 500 500" enable-background="new 0 0 500 500" xml:space="preserve">
<path fill="#00359D" opacity="1.000000" stroke="none" 
	d="
M317.000000,501.000000 
	C211.333359,501.000000 106.166718,501.000000 1.000057,501.000000 
	C1.000038,334.333405 1.000038,167.666794 1.000019,1.000146 
	C167.666565,1.000097 334.333130,1.000097 500.999756,1.000049 
	C500.999847,167.666519 500.999847,334.333038 500.999939,500.999786 
	C439.833344,501.000000 378.666656,501.000000 317.000000,501.000000 
M313.132843,228.252762 
	C315.753387,225.500610 318.373901,222.748459 321.587250,219.690399 
	C326.366455,213.921066 331.145691,208.151718 336.409790,202.015686 
	C342.971008,192.963654 348.739288,183.498016 351.461639,172.498413 
	C354.996002,158.217590 350.952972,147.378830 339.418518,141.429901 
	C334.894989,139.096893 329.987823,137.250183 325.045715,136.033936 
	C309.324158,132.164841 293.445923,132.931244 277.504120,134.869232 
	C253.436447,137.795029 230.232193,143.826462 208.537766,154.633362 
	C201.251740,158.262833 194.313477,163.331589 188.551788,169.080887 
	C182.222687,175.396378 183.800079,182.221390 191.378571,186.911499 
	C194.732452,188.987122 198.363693,190.907715 202.131027,191.965973 
	C212.485687,194.874710 223.005569,197.192154 233.386002,200.015839 
	C234.792160,200.398346 236.789642,202.335800 236.795486,203.561447 
	C236.854965,216.032669 236.557922,228.505569 235.860367,241.636032 
	C235.463608,247.008621 235.148270,252.388809 234.647232,257.751648 
	C234.145340,263.123718 233.458008,268.478424 232.346786,274.038971 
	C231.899551,274.341675 231.452316,274.644379 230.442474,275.415924 
	C212.218338,284.014771 193.017853,289.756958 173.616058,294.935150 
	C171.849350,295.406647 170.267136,296.569458 168.599243,297.411255 
	C168.917969,298.197540 169.236679,298.983826 169.555389,299.770111 
	C192.276398,296.122833 213.862259,288.382233 235.952515,279.411102 
	C235.952515,281.905457 235.972641,283.674255 235.949448,285.442474 
	C235.658920,307.589111 235.328171,329.735291 235.108124,351.882599 
	C235.079224,354.791962 233.672211,359.312561 238.355652,359.335754 
	C242.839981,359.358063 241.801376,354.804596 241.914490,351.880707 
	C242.519226,336.249054 242.965546,320.611298 243.673874,304.780212 
	C243.824234,304.504883 243.780380,304.255585 243.348709,303.387177 
	C243.427109,302.951172 243.505508,302.515167 244.098618,301.404175 
	C244.304764,293.714661 244.510910,286.025146 244.475708,277.672211 
	C245.836044,276.106354 246.959579,274.199860 248.610565,273.052063 
	C251.291168,271.188385 254.317291,269.821686 257.902985,268.097687 
	C262.950317,265.082367 267.997620,262.067047 273.719269,258.868225 
	C285.811523,249.577591 297.903778,240.286942 310.557465,230.794495 
	C311.243652,230.087112 311.929840,229.379730 313.132843,228.252762 
z"/>
<path fill="#BBD8E8" opacity="1.000000" stroke="none" 
	d="
M236.360718,240.978012 
	C236.557922,228.505569 236.854965,216.032669 236.795486,203.561447 
	C236.789642,202.335800 234.792160,200.398346 233.386002,200.015839 
	C223.005569,197.192154 212.485687,194.874710 202.131027,191.965973 
	C198.363693,190.907715 194.732452,188.987122 191.378571,186.911499 
	C183.800079,182.221390 182.222687,175.396378 188.551788,169.080887 
	C194.313477,163.331589 201.251740,158.262833 208.537766,154.633362 
	C230.232193,143.826462 253.436447,137.795029 277.504120,134.869232 
	C293.445923,132.931244 309.324158,132.164841 325.045715,136.033936 
	C329.987823,137.250183 334.894989,139.096893 339.418518,141.429901 
	C350.952972,147.378830 354.996002,158.217590 351.461639,172.498413 
	C348.739288,183.498016 342.971008,192.963654 336.177002,201.965485 
	C335.964020,201.604202 335.981445,201.292969 336.180847,200.688232 
	C339.230957,195.559967 342.399994,190.875854 344.895477,185.856857 
	C349.257874,177.083084 351.795807,167.652176 349.919739,157.926331 
	C349.140381,153.886124 346.504883,149.355621 343.308563,146.817093 
	C337.685791,142.351517 331.564728,138.140808 323.764648,137.661880 
	C318.013031,137.308731 312.308990,135.749268 306.572235,135.679764 
	C296.313171,135.555511 286.045319,136.146896 275.782410,136.478455 
	C275.672089,136.482025 275.578888,137.015015 275.217804,138.034851 
	C277.553497,138.034851 279.666504,137.960464 281.772949,138.046890 
	C295.686554,138.617783 309.793274,136.132721 323.473541,140.140289 
	C328.966949,141.749588 335.533417,142.206390 337.534332,149.005249 
	C326.935120,140.800430 314.656677,139.567398 302.312042,139.077866 
	C274.483917,137.974365 247.707504,143.437347 221.928268,153.531265 
	C213.502625,156.830353 205.446991,161.396667 197.818771,166.309784 
	C191.539429,170.354095 190.884705,174.083099 192.759613,179.815826 
	C187.247223,177.239990 191.965515,173.067795 190.982330,169.708389 
	C185.059052,174.105423 185.048920,179.472168 190.808975,183.931870 
	C202.550339,193.022568 217.017166,194.485718 230.745270,197.836166 
	C237.361633,199.450943 237.728043,199.166824 238.039032,206.475189 
	C238.000305,226.347748 238.047058,245.752914 237.860367,265.155823 
	C237.834579,267.835419 236.652924,270.503845 235.744461,273.157013 
	C235.308105,273.120880 235.133667,273.105194 235.101959,272.687073 
	C235.616699,261.849060 235.988708,251.413544 236.360718,240.978012 
M192.943069,167.413681 
	C192.943069,167.413681 193.037857,167.417679 192.943069,167.413681 
z"/>
<path fill="#BBD8E8" opacity="1.000000" stroke="none" 
	d="
M257.197571,268.245209 
	C254.317291,269.821686 251.291168,271.188385 248.610565,273.052063 
	C246.959579,274.199860 245.836044,276.106354 244.333344,278.379211 
	C243.988602,286.750519 243.786255,294.414856 243.583893,302.079163 
	C243.505508,302.515167 243.427109,302.951172 243.359192,303.939667 
	C243.369690,304.492157 243.466644,304.975647 243.466644,304.975647 
	C242.965546,320.611298 242.519226,336.249054 241.914490,351.880707 
	C241.801376,354.804596 242.839981,359.358063 238.355652,359.335754 
	C233.672211,359.312561 235.079224,354.791962 235.108124,351.882599 
	C235.328171,329.735291 235.658920,307.589111 235.949448,285.442474 
	C235.972641,283.674255 235.952515,281.905457 235.952515,279.411102 
	C213.862259,288.382233 192.276398,296.122833 169.555389,299.770111 
	C169.236679,298.983826 168.917969,298.197540 168.599243,297.411255 
	C170.267136,296.569458 171.849350,295.406647 173.616058,294.935150 
	C193.017853,289.756958 212.218338,284.014771 231.018188,275.192047 
	C231.982834,274.926270 232.371750,274.884338 232.605331,275.144592 
	C231.103973,276.307617 229.810059,277.267212 228.401871,278.010223 
	C224.593475,280.019684 220.736496,281.937012 216.597351,283.913971 
	C215.537476,284.230316 214.779037,284.523560 214.020615,284.816833 
	C214.230545,285.175507 214.440475,285.534180 214.650421,285.892853 
	C215.463135,285.295013 216.275864,284.697174 217.486771,284.080444 
	C223.922318,282.043854 229.959656,280.026093 236.320984,278.078064 
	C237.160370,279.032715 238.123260,279.917114 238.124191,280.802490 
	C238.138733,294.614990 238.126526,308.429138 237.911728,322.239655 
	C237.779999,330.709656 237.257111,339.173096 237.003021,347.642242 
	C236.960449,349.060974 237.393326,350.493927 237.606491,351.920319 
	C238.136215,351.897858 238.665955,351.875397 239.195679,351.852936 
	C239.481873,349.825073 239.900620,347.805664 240.030746,345.767853 
	C240.527237,337.992310 241.096344,330.215820 241.330994,322.430389 
	C241.701660,310.132660 241.964233,297.827667 241.989410,285.525208 
	C242.000793,279.964233 242.074463,274.634216 247.909668,270.352325 
	C242.458389,270.279358 241.952316,267.539642 241.974579,263.931305 
	C242.091614,244.955368 242.029327,225.978317 242.030594,206.648560 
	C242.734360,204.586670 243.436844,202.877869 244.071289,201.624146 
	C243.909256,223.669357 243.813461,245.259491 243.741028,266.849670 
	C243.740097,267.128021 244.037048,267.407379 244.527283,268.273132 
	C246.488617,267.338226 248.524918,266.367584 250.762863,265.753296 
	C252.923508,266.655212 254.882507,267.200775 256.932800,267.869446 
	C257.024048,267.992554 257.197571,268.245209 257.197571,268.245209 
M206.205505,288.922272 
	C207.459122,288.364410 208.712753,287.806549 209.966370,287.248657 
	C209.801590,286.796722 209.636810,286.344757 209.472031,285.892822 
	C204.685364,287.439850 199.898697,288.986877 195.112030,290.533936 
	C195.249939,291.071228 195.387848,291.608551 195.525757,292.145874 
	C198.856354,291.164856 202.186966,290.183838 206.205505,288.922272 
z"/>
<path fill="#BFDAE9" opacity="1.000000" stroke="none" 
	d="
M309.996033,230.996307 
	C297.903778,240.286942 285.811523,249.577591 273.295410,258.861450 
	C272.871582,258.854675 272.698090,258.657776 272.870941,258.380035 
	C274.367188,256.874146 275.586548,255.504318 277.032166,254.442612 
	C282.992981,250.064896 289.039551,245.804169 295.021301,241.454681 
	C299.925568,237.888657 304.782745,234.257919 309.744629,230.740967 
	C309.828491,230.826050 309.996033,230.996307 309.996033,230.996307 
z"/>
<path fill="#BFDAE9" opacity="1.000000" stroke="none" 
	d="
M335.996490,200.981598 
	C335.981445,201.292969 335.964020,201.604202 335.934570,202.148834 
	C331.145691,208.151718 326.366455,213.921066 321.204041,219.758820 
	C320.820831,219.827240 320.647003,219.658371 320.740601,219.320129 
	C325.888275,212.981796 330.942383,206.981705 335.996490,200.981598 
z"/>
<path fill="#073B84" opacity="1.000000" stroke="none" 
	d="
M236.110535,241.307022 
	C235.988708,251.413544 235.616699,261.849060 234.909668,272.755188 
	C234.323257,273.383423 234.182220,273.609833 233.864960,273.939392 
	C233.386276,273.983307 233.194122,273.992889 232.964600,273.961914 
	C232.927261,273.921356 232.851959,273.840759 232.851959,273.840759 
	C233.458008,268.478424 234.145340,263.123718 234.647232,257.751648 
	C235.148270,252.388809 235.463608,247.008621 236.110535,241.307022 
z"/>
<path fill="#BFDAE9" opacity="1.000000" stroke="none" 
	d="
M272.958252,258.953186 
	C267.997620,262.067047 262.950317,265.082367 257.550293,268.171448 
	C257.197571,268.245209 257.024048,267.992554 257.125916,267.610626 
	C262.384552,264.371735 267.541321,261.514771 272.698090,258.657776 
	C272.698090,258.657776 272.871582,258.854675 272.958252,258.953186 
z"/>
<path fill="#073B84" opacity="1.000000" stroke="none" 
	d="
M243.841248,301.741669 
	C243.786255,294.414856 243.988602,286.750519 244.454010,278.710938 
	C244.510910,286.025146 244.304764,293.714661 243.841248,301.741669 
z"/>
<path fill="#BFDAE9" opacity="1.000000" stroke="none" 
	d="
M320.907654,219.911774 
	C318.373901,222.748459 315.753387,225.500610 312.721008,228.292664 
	C312.309143,228.332565 311.997162,227.997406 312.100494,227.669540 
	C315.018219,224.780579 317.832611,222.219467 320.647003,219.658356 
	C320.647003,219.658371 320.820831,219.827240 320.907654,219.911774 
z"/>
<path fill="#BFDAE9" opacity="1.000000" stroke="none" 
	d="
M312.462585,228.502472 
	C311.929840,229.379730 311.243652,230.087112 310.276733,230.895401 
	C309.996033,230.996307 309.828491,230.826050 309.869324,230.462265 
	C310.605804,229.398117 311.301483,228.697754 311.997131,227.997406 
	C311.997162,227.997406 312.309143,228.332565 312.462585,228.502472 
z"/>
<path fill="#073B84" opacity="1.000000" stroke="none" 
	d="
M232.760666,274.842438 
	C232.371750,274.884338 231.982834,274.926270 231.299500,274.957642 
	C231.452316,274.644379 231.899551,274.341675 232.599365,273.939880 
	C232.851959,273.840759 232.927261,273.921356 232.865616,274.175446 
	C232.803970,274.429535 232.701248,274.888885 232.735306,274.902222 
	C232.769363,274.915527 232.760666,274.842438 232.760666,274.842438 
z"/>
<path fill="#073B84" opacity="1.000000" stroke="none" 
	d="
M243.570251,304.877930 
	C243.466644,304.975647 243.369690,304.492157 243.456009,304.262238 
	C243.780380,304.255585 243.824234,304.504883 243.570251,304.877930 
z"/>
<path fill="#01369C" opacity="1.000000" stroke="none" 
	d="
M250.561218,265.396942 
	C248.524918,266.367584 246.488617,267.338226 244.527283,268.273132 
	C244.037048,267.407379 243.740097,267.128021 243.741028,266.849670 
	C243.813461,245.259491 243.909256,223.669357 244.331238,201.576492 
	C244.825974,201.018967 244.992767,200.964172 245.528824,201.013672 
	C249.613556,201.619202 253.329041,202.120438 257.358612,202.728317 
	C258.112732,202.825287 258.552795,202.815613 259.347137,202.901215 
	C260.906799,202.888626 262.112122,202.780762 263.449036,202.690033 
	C263.580597,202.707199 263.711243,202.476212 264.022827,202.305267 
	C266.381897,199.260910 263.915741,198.533798 262.103851,198.145584 
	C257.734283,197.209335 253.307922,196.391159 248.862671,195.998138 
	C244.707642,195.630783 242.510925,193.848404 242.206268,189.619858 
	C242.004135,186.814178 241.804031,183.935043 240.994080,181.274155 
	C240.515106,179.700623 238.850082,178.488129 237.718414,177.113266 
	C236.860382,178.879120 235.470261,180.588684 235.276031,182.424774 
	C235.020660,184.838989 235.727936,187.350525 235.982132,189.824219 
	C236.329529,193.204834 235.091309,194.394348 231.627914,193.327057 
	C220.117645,189.779953 208.563141,186.376419 197.024124,182.949493 
	C197.022659,182.981171 197.081757,182.958206 196.924927,182.677551 
	C195.542923,181.544403 194.317780,180.691925 193.085403,179.869507 
	C193.078186,179.899582 193.127869,179.861343 193.127869,179.861343 
	C190.884705,174.083099 191.539429,170.354095 197.818771,166.309784 
	C205.446991,161.396667 213.502625,156.830353 221.928268,153.531265 
	C247.707504,143.437347 274.483917,137.974365 302.312042,139.077866 
	C314.656677,139.567398 326.935120,140.800430 337.550842,148.972641 
	C337.888763,149.061829 337.824860,149.026489 337.905182,149.309952 
	C338.306824,149.802872 338.628113,150.012329 338.943237,150.159698 
	C338.937042,150.097595 338.812958,150.111130 338.941132,150.448792 
	C345.197357,158.577805 344.595123,167.353210 341.369995,175.672531 
	C338.366302,183.420654 333.795563,190.561279 329.946411,197.972244 
	C329.978149,197.975159 329.955444,197.915588 329.664673,198.075195 
	C328.119995,200.038712 326.866119,201.842621 325.751251,203.795013 
	C325.890289,203.943527 325.630646,203.630615 325.364227,203.823639 
	C323.343506,206.312653 321.589203,208.608643 319.869141,210.909515 
	C319.903381,210.914413 319.887512,210.847107 319.590820,210.973419 
	C318.033844,212.525711 316.773560,213.951721 315.442810,215.382812 
	C315.372345,215.387909 315.373932,215.529221 315.121399,215.733337 
	C310.419525,220.410858 305.970245,224.884232 301.448975,229.355667 
	C301.377014,229.353714 301.364319,229.497116 301.111298,229.653717 
	C300.199554,230.519958 299.540833,231.229599 298.926392,231.946701 
	C298.970673,231.954178 298.985107,231.865524 298.710754,231.950134 
	C298.228027,232.343903 298.019684,232.653061 297.868896,232.956879 
	C297.926453,232.951523 297.914917,232.836456 297.618408,232.934296 
	C296.406891,233.868591 295.491882,234.705063 294.618713,235.556152 
	C294.660522,235.570786 294.684753,235.485580 294.403381,235.596405 
	C293.726562,236.132889 293.331146,236.558533 292.967590,236.991150 
	C292.999451,236.998138 293.001617,236.932968 292.731812,237.006912 
	C292.255737,237.377289 292.049469,237.673706 291.892639,237.964996 
	C291.942078,237.959839 291.931091,237.861008 291.610168,237.977478 
	C288.847229,240.061310 286.405182,242.028671 283.987488,244.005692 
	C284.011810,244.015350 284.008240,243.963089 283.739807,244.028961 
	C283.269135,244.386505 283.066925,244.678177 282.910217,244.964172 
	C282.955719,244.958481 282.943726,244.867523 282.639282,244.948181 
	C281.547180,245.687073 280.759521,246.345322 279.992950,247.012756 
	C280.014038,247.021942 280.013641,246.975906 279.740417,247.033844 
	C279.247253,247.378372 279.027283,247.664948 278.866577,247.949280 
	C278.925873,247.947052 278.920532,247.828522 278.606873,247.896149 
	C277.485748,248.617447 276.678284,249.271133 275.905640,249.929535 
	C275.940491,249.934235 275.946838,249.864197 275.639648,249.945801 
	C274.530640,250.673233 273.728790,251.319077 272.955872,251.976105 
	C272.984772,251.987305 272.974274,251.926208 272.641174,252.018967 
	C269.896301,253.757919 267.484528,255.404099 265.050781,257.027283 
	C265.028839,257.004242 265.031342,257.067749 264.762146,257.091064 
	C264.269104,257.382660 264.045288,257.650879 263.879730,257.927887 
	C263.937988,257.936676 263.954651,257.820007 263.651489,257.867920 
	C262.887268,258.273865 262.426147,258.631897 261.982635,259.001038 
	C262.000214,259.012146 261.995514,258.970825 261.668030,259.034302 
	C259.893860,260.059326 258.447205,261.020905 256.996094,261.985809 
	C256.991608,261.989136 256.981293,261.994232 256.647827,262.050842 
	C254.413086,263.207611 252.511841,264.307770 250.598755,265.400940 
	C250.586899,265.393951 250.561218,265.396942 250.561218,265.396942 
z"/>
<path fill="#D7E0D4" opacity="1.000000" stroke="none" 
	d="
M312.100464,227.669525 
	C311.301483,228.697754 310.605804,229.398117 309.785461,230.377182 
	C304.782745,234.257919 299.925568,237.888657 295.021301,241.454681 
	C289.039551,245.804169 282.992981,250.064896 277.032166,254.442612 
	C275.586548,255.504318 274.367188,256.874146 272.870941,258.380035 
	C267.541321,261.514771 262.384552,264.371735 257.034668,267.487518 
	C254.882507,267.200775 252.923508,266.655212 250.762863,265.753296 
	C250.561218,265.396942 250.586899,265.393951 250.969971,265.478485 
	C253.229111,264.373413 255.105209,263.183838 256.981293,261.994232 
	C256.981293,261.994232 256.991608,261.989136 257.363525,261.992188 
	C259.155457,260.987122 260.575500,259.978973 261.995514,258.970825 
	C261.995514,258.970825 262.000214,259.012146 262.272736,258.939270 
	C263.015045,258.517578 263.484863,258.168793 263.954651,257.820007 
	C263.954651,257.820007 263.937988,257.936676 264.111450,257.831482 
	C264.533722,257.506805 264.782532,257.287292 265.031342,257.067749 
	C265.031342,257.067749 265.028839,257.004242 265.431274,257.024261 
	C268.213867,255.338242 270.594055,253.632217 272.974274,251.926208 
	C272.974274,251.926208 272.984772,251.987305 273.291687,251.952652 
	C274.381348,251.233398 275.164093,250.548798 275.946838,249.864197 
	C275.946838,249.864197 275.940491,249.934235 276.245148,249.909561 
	C277.340057,249.199432 278.130280,248.513977 278.920532,247.828522 
	C278.920532,247.828522 278.925873,247.947052 279.100830,247.829483 
	C279.521759,247.466583 279.767700,247.221252 280.013641,246.975906 
	C280.013641,246.975906 280.014038,247.021942 280.326599,246.985168 
	C281.407349,246.254761 282.175537,245.561127 282.943726,244.867523 
	C282.943726,244.867523 282.955719,244.958481 283.138123,244.841690 
	C283.549744,244.470963 283.778992,244.217026 284.008240,243.963089 
	C284.008240,243.963089 284.011810,244.015350 284.376007,244.010208 
	C288.862488,243.976334 290.795929,241.385803 291.931091,237.861008 
	C291.931091,237.861008 291.942078,237.959839 292.120972,237.833466 
	C292.533752,237.449051 292.767670,237.190994 293.001587,236.932953 
	C293.001617,236.932968 292.999451,236.998138 293.251587,236.896408 
	C293.897430,236.358307 294.291107,235.921951 294.684753,235.485596 
	C294.684753,235.485580 294.660522,235.570786 294.967529,235.561646 
	C296.154663,234.647156 297.034790,233.741806 297.914917,232.836456 
	C297.914917,232.836456 297.926453,232.951523 298.103363,232.817902 
	C298.515228,232.411377 298.750183,232.138458 298.985107,231.865540 
	C298.985107,231.865524 298.970673,231.954178 299.263245,231.905670 
	C300.158661,231.070496 300.761505,230.283813 301.364319,229.497116 
	C301.364319,229.497116 301.377014,229.353714 301.819214,229.407684 
	C308.366150,226.449356 313.308899,222.343475 315.373932,215.529221 
	C315.373932,215.529221 315.372345,215.387909 315.828979,215.455658 
	C319.703217,215.672226 319.896423,213.337509 319.887512,210.847107 
	C319.887512,210.847107 319.903381,210.914413 320.216309,210.848358 
	C322.229736,208.398422 323.930206,206.014526 325.630646,203.630615 
	C325.630646,203.630615 325.890289,203.943527 326.109375,203.771637 
	C327.537476,201.705032 328.746460,199.810318 329.955444,197.915588 
	C329.955444,197.915588 329.978149,197.975159 330.283691,197.894836 
	C331.512878,197.138702 332.849701,196.665039 333.294983,195.755112 
	C336.909760,188.367889 340.640778,181.015579 343.768433,173.418793 
	C346.375214,167.087128 346.181641,160.461380 342.987854,154.273911 
	C342.129517,152.611038 340.232941,151.484085 338.812958,150.111130 
	C338.812958,150.111130 338.937042,150.097595 338.797913,149.922409 
	C338.380829,149.506973 338.102844,149.266724 337.824860,149.026489 
	C337.824860,149.026489 337.888763,149.061829 337.872253,149.094452 
	C335.533417,142.206390 328.966949,141.749588 323.473541,140.140289 
	C309.793274,136.132721 295.686554,138.617783 281.772949,138.046890 
	C279.666504,137.960464 277.553497,138.034851 275.217804,138.034851 
	C275.578888,137.015015 275.672089,136.482025 275.782410,136.478455 
	C286.045319,136.146896 296.313171,135.555511 306.572235,135.679764 
	C312.308990,135.749268 318.013031,137.308731 323.764648,137.661880 
	C331.564728,138.140808 337.685791,142.351517 343.308563,146.817093 
	C346.504883,149.355621 349.140381,153.886124 349.919739,157.926331 
	C351.795807,167.652176 349.257874,177.083084 344.895477,185.856857 
	C342.399994,190.875854 339.230957,195.559967 336.180847,200.688232 
	C330.942383,206.981705 325.888275,212.981796 320.740601,219.320129 
	C317.832611,222.219467 315.018219,224.780579 312.100464,227.669525 
z"/>
<path fill="#D8E0D4" opacity="1.000000" stroke="none" 
	d="
M242.029312,207.001678 
	C242.029327,225.978317 242.091614,244.955368 241.974579,263.931305 
	C241.952316,267.539642 242.458389,270.279358 247.909668,270.352325 
	C242.074463,274.634216 242.000793,279.964233 241.989410,285.525208 
	C241.964233,297.827667 241.701660,310.132660 241.330994,322.430389 
	C241.096344,330.215820 240.527237,337.992310 240.030746,345.767853 
	C239.900620,347.805664 239.481873,349.825073 239.195679,351.852936 
	C238.665955,351.875397 238.136215,351.897858 237.606491,351.920319 
	C237.393326,350.493927 236.960449,349.060974 237.003021,347.642242 
	C237.257111,339.173096 237.779999,330.709656 237.911728,322.239655 
	C238.126526,308.429138 238.138733,294.614990 238.124191,280.802490 
	C238.123260,279.917114 237.160370,279.032715 236.321747,277.671814 
	C236.001129,275.856323 236.003754,274.516876 236.006378,273.177460 
	C236.652924,270.503845 237.834579,267.835419 237.860367,265.155823 
	C238.047058,245.752914 238.000305,226.347748 238.370956,206.547241 
	C239.819397,206.434677 240.924362,206.718170 242.029312,207.001678 
z"/>
<path fill="#D7E0D4" opacity="1.000000" stroke="none" 
	d="
M242.030594,206.648575 
	C240.924362,206.718170 239.819397,206.434677 238.382507,206.079132 
	C237.728043,199.166824 237.361633,199.450943 230.745270,197.836166 
	C217.017166,194.485718 202.550339,193.022568 190.808975,183.931870 
	C185.048920,179.472168 185.059052,174.105423 190.982330,169.708389 
	C191.965515,173.067795 187.247223,177.239990 192.759613,179.815826 
	C193.127869,179.861343 193.078186,179.899582 193.154327,180.214630 
	C194.514221,181.339203 195.797989,182.148697 197.081757,182.958206 
	C197.081757,182.958206 197.022659,182.981171 197.116516,183.289230 
	C199.214417,184.951950 201.041611,186.895050 203.253036,187.559570 
	C212.909729,190.461441 222.656738,193.073746 232.417282,195.613098 
	C235.821747,196.498825 237.858002,195.072235 237.947205,191.282990 
	C237.992828,189.344452 238.358856,187.413467 238.580078,185.479080 
	C241.918411,196.657135 241.952728,196.421951 253.996552,198.179214 
	C257.371918,198.671692 260.480377,200.993515 263.711243,202.476212 
	C263.711243,202.476212 263.580597,202.707199 263.088623,202.566895 
	C261.395355,202.553040 260.194092,202.679489 258.992828,202.805939 
	C258.552795,202.815613 258.112732,202.825287 257.182556,202.426590 
	C252.848129,201.648605 249.003860,201.278992 245.159576,200.909363 
	C244.992767,200.964172 244.825974,201.018967 244.399261,201.121399 
	C243.436844,202.877869 242.734360,204.586670 242.030594,206.648575 
z"/>
<path fill="#D7E0D4" opacity="1.000000" stroke="none" 
	d="
M235.744461,273.157013 
	C236.003754,274.516876 236.001129,275.856323 235.997757,277.602020 
	C229.959656,280.026093 223.922318,282.043854 217.439453,284.028259 
	C216.993927,283.994904 216.898788,283.890900 216.898788,283.890900 
	C220.736496,281.937012 224.593475,280.019684 228.401871,278.010223 
	C229.810059,277.267212 231.103973,276.307617 232.605331,275.144592 
	C232.760666,274.842438 232.769363,274.915527 233.004852,274.783813 
	C233.544067,274.403076 233.847778,274.154083 234.151489,273.905060 
	C234.182220,273.609833 234.323257,273.383423 234.766937,273.157654 
	C235.133667,273.105194 235.308105,273.120880 235.744461,273.157013 
z"/>
<path fill="#D7E0D4" opacity="1.000000" stroke="none" 
	d="
M192.990463,167.415680 
	C193.037857,167.417679 192.943069,167.413681 192.990463,167.415680 
z"/>
<path fill="#D7E0D4" opacity="1.000000" stroke="none" 
	d="
M205.861542,289.062531 
	C202.186966,290.183838 198.856354,291.164856 195.525757,292.145874 
	C195.387848,291.608551 195.249939,291.071228 195.112030,290.533936 
	C199.898697,288.986877 204.685364,287.439850 209.472031,285.892822 
	C209.636810,286.344757 209.801590,286.796722 209.966370,287.248657 
	C208.712753,287.806549 207.459122,288.364410 205.861542,289.062531 
z"/>
<path fill="#D7E0D4" opacity="1.000000" stroke="none" 
	d="
M217.041260,284.047119 
	C216.275864,284.697174 215.463135,285.295013 214.650421,285.892853 
	C214.440475,285.534180 214.230545,285.175507 214.020615,284.816833 
	C214.779037,284.523560 215.537476,284.230316 216.597351,283.913971 
	C216.898788,283.890900 216.993927,283.994904 217.041260,284.047119 
z"/>
<path fill="#BBD8E8" opacity="1.000000" stroke="none" 
	d="
M233.864960,273.939392 
	C233.847778,274.154083 233.544067,274.403076 232.970795,274.770508 
	C232.701248,274.888885 232.803970,274.429535 232.902954,274.216003 
	C233.194122,273.992889 233.386276,273.983307 233.864960,273.939392 
z"/>
<path fill="#BBD8E8" opacity="1.000000" stroke="none" 
	d="
M264.022827,202.305267 
	C260.480377,200.993515 257.371918,198.671692 253.996552,198.179214 
	C241.952728,196.421951 241.918411,196.657135 238.580078,185.479080 
	C238.358856,187.413467 237.992828,189.344452 237.947205,191.282990 
	C237.858002,195.072235 235.821747,196.498825 232.417282,195.613098 
	C222.656738,193.073746 212.909729,190.461441 203.253036,187.559570 
	C201.041611,186.895050 199.214417,184.951950 197.117981,183.257568 
	C208.563141,186.376419 220.117645,189.779953 231.627914,193.327057 
	C235.091309,194.394348 236.329529,193.204834 235.982132,189.824219 
	C235.727936,187.350525 235.020660,184.838989 235.276031,182.424774 
	C235.470261,180.588684 236.860382,178.879120 237.718414,177.113266 
	C238.850082,178.488129 240.515106,179.700623 240.994080,181.274155 
	C241.804031,183.935043 242.004135,186.814178 242.206268,189.619858 
	C242.510925,193.848404 244.707642,195.630783 248.862671,195.998138 
	C253.307922,196.391159 257.734283,197.209335 262.103851,198.145584 
	C263.915741,198.533798 266.381897,199.260910 264.022827,202.305267 
M237.922791,180.830658 
	C237.934799,181.344116 237.946808,181.857590 237.958817,182.371048 
	C238.364685,182.282410 238.770569,182.193771 239.176422,182.105133 
	C238.909332,181.650284 238.642242,181.195435 237.922791,180.830658 
z"/>
<path fill="#BBD8E8" opacity="1.000000" stroke="none" 
	d="
M338.941132,150.448792 
	C340.232941,151.484085 342.129517,152.611038 342.987854,154.273911 
	C346.181641,160.461380 346.375214,167.087128 343.768433,173.418793 
	C340.640778,181.015579 336.909760,188.367889 333.294983,195.755112 
	C332.849701,196.665039 331.512878,197.138702 330.251923,197.891937 
	C333.795563,190.561279 338.366302,183.420654 341.369995,175.672531 
	C344.595123,167.353210 345.197357,158.577805 338.941132,150.448792 
z"/>
<path fill="#BBD8E8" opacity="1.000000" stroke="none" 
	d="
M315.121399,215.733337 
	C313.308899,222.343475 308.366150,226.449356 301.891174,229.409637 
	C305.970245,224.884232 310.419525,220.410858 315.121399,215.733337 
z"/>
<path fill="#BBD8E8" opacity="1.000000" stroke="none" 
	d="
M245.528824,201.013672 
	C249.003860,201.278992 252.848129,201.648605 256.868469,202.319946 
	C253.329041,202.120438 249.613556,201.619202 245.528824,201.013672 
z"/>
<path fill="#BBD8E8" opacity="1.000000" stroke="none" 
	d="
M291.610168,237.977478 
	C290.795929,241.385803 288.862488,243.976334 284.351685,244.000549 
	C286.405182,242.028671 288.847229,240.061310 291.610168,237.977478 
z"/>
<path fill="#BBD8E8" opacity="1.000000" stroke="none" 
	d="
M272.641174,252.018951 
	C270.594055,253.632217 268.213867,255.338242 265.453186,257.047302 
	C267.484528,255.404099 269.896301,253.757919 272.641174,252.018951 
z"/>
<path fill="#BBD8E8" opacity="1.000000" stroke="none" 
	d="
M325.364227,203.823639 
	C323.930206,206.014526 322.229736,208.398422 320.182098,210.843475 
	C321.589203,208.608643 323.343506,206.312653 325.364227,203.823639 
z"/>
<path fill="#BBD8E8" opacity="1.000000" stroke="none" 
	d="
M319.590820,210.973419 
	C319.896423,213.337509 319.703217,215.672226 315.899475,215.450562 
	C316.773560,213.951721 318.033844,212.525711 319.590820,210.973419 
z"/>
<path fill="#BBD8E8" opacity="1.000000" stroke="none" 
	d="
M329.664673,198.075211 
	C328.746460,199.810318 327.537476,201.705032 325.970337,203.623138 
	C326.866119,201.842621 328.119995,200.038712 329.664673,198.075211 
z"/>
<path fill="#BBD8E8" opacity="1.000000" stroke="none" 
	d="
M256.647827,262.050842 
	C255.105209,263.183838 253.229111,264.373413 250.981812,265.485474 
	C252.511841,264.307770 254.413086,263.207611 256.647827,262.050842 
z"/>
<path fill="#BBD8E8" opacity="1.000000" stroke="none" 
	d="
M261.668030,259.034302 
	C260.575500,259.978973 259.155457,260.987122 257.367981,261.988892 
	C258.447205,261.020905 259.893860,260.059326 261.668030,259.034302 
z"/>
<path fill="#BBD8E8" opacity="1.000000" stroke="none" 
	d="
M196.924927,182.677551 
	C195.797989,182.148697 194.514221,181.339203 193.161530,180.184570 
	C194.317780,180.691925 195.542923,181.544403 196.924927,182.677551 
z"/>
<path fill="#BBD8E8" opacity="1.000000" stroke="none" 
	d="
M297.618408,232.934296 
	C297.034790,233.741806 296.154663,234.647156 294.925720,235.547012 
	C295.491882,234.705063 296.406891,233.868591 297.618408,232.934296 
z"/>
<path fill="#BBD8E8" opacity="1.000000" stroke="none" 
	d="
M278.606873,247.896149 
	C278.130280,248.513977 277.340057,249.199432 276.210327,249.904846 
	C276.678284,249.271133 277.485748,248.617447 278.606873,247.896149 
z"/>
<path fill="#BBD8E8" opacity="1.000000" stroke="none" 
	d="
M275.639648,249.945801 
	C275.164093,250.548798 274.381348,251.233398 273.262756,251.941467 
	C273.728790,251.319077 274.530640,250.673233 275.639648,249.945801 
z"/>
<path fill="#BBD8E8" opacity="1.000000" stroke="none" 
	d="
M282.639282,244.948181 
	C282.175537,245.561127 281.407349,246.254761 280.305511,246.975983 
	C280.759521,246.345322 281.547180,245.687073 282.639282,244.948181 
z"/>
<path fill="#BBD8E8" opacity="1.000000" stroke="none" 
	d="
M301.111298,229.653717 
	C300.761505,230.283813 300.158661,231.070496 299.218964,231.898193 
	C299.540833,231.229599 300.199554,230.519958 301.111298,229.653717 
z"/>
<path fill="#BBD8E8" opacity="1.000000" stroke="none" 
	d="
M259.347137,202.901215 
	C260.194092,202.679489 261.395355,202.553040 262.957031,202.549744 
	C262.112122,202.780762 260.906799,202.888626 259.347137,202.901215 
z"/>
<path fill="#BBD8E8" opacity="1.000000" stroke="none" 
	d="
M263.651489,257.867920 
	C263.484863,258.168793 263.015045,258.517578 262.255157,258.928162 
	C262.426147,258.631897 262.887268,258.273865 263.651489,257.867920 
z"/>
<path fill="#BBD8E8" opacity="1.000000" stroke="none" 
	d="
M294.403381,235.596405 
	C294.291107,235.921951 293.897430,236.358307 293.219727,236.889435 
	C293.331146,236.558533 293.726562,236.132889 294.403381,235.596405 
z"/>
<path fill="#BBD8E8" opacity="1.000000" stroke="none" 
	d="
M279.740417,247.033844 
	C279.767700,247.221252 279.521759,247.466583 279.041565,247.831711 
	C279.027283,247.664948 279.247253,247.378372 279.740417,247.033844 
z"/>
<path fill="#BBD8E8" opacity="1.000000" stroke="none" 
	d="
M337.905182,149.309952 
	C338.102844,149.266724 338.380829,149.506973 338.804138,149.984497 
	C338.628113,150.012329 338.306824,149.802872 337.905182,149.309952 
z"/>
<path fill="#BBD8E8" opacity="1.000000" stroke="none" 
	d="
M298.710754,231.950150 
	C298.750183,232.138458 298.515228,232.411377 298.045807,232.823257 
	C298.019684,232.653061 298.228027,232.343903 298.710754,231.950150 
z"/>
<path fill="#BBD8E8" opacity="1.000000" stroke="none" 
	d="
M292.731812,237.006897 
	C292.767670,237.190994 292.533752,237.449051 292.071503,237.838623 
	C292.049469,237.673706 292.255737,237.377289 292.731812,237.006897 
z"/>
<path fill="#BBD8E8" opacity="1.000000" stroke="none" 
	d="
M283.739807,244.028961 
	C283.778992,244.217026 283.549744,244.470963 283.092590,244.847382 
	C283.066925,244.678177 283.269135,244.386505 283.739807,244.028961 
z"/>
<path fill="#BBD8E8" opacity="1.000000" stroke="none" 
	d="
M264.762146,257.091064 
	C264.782532,257.287292 264.533722,257.506805 264.053192,257.822693 
	C264.045288,257.650879 264.269104,257.382660 264.762146,257.091064 
z"/>
<path fill="#D7E0D4" opacity="1.000000" stroke="none" 
	d="
M238.148972,180.785614 
	C238.642242,181.195435 238.909332,181.650284 239.176422,182.105133 
	C238.770569,182.193771 238.364685,182.282410 237.958817,182.371048 
	C237.946808,181.857590 237.934799,181.344116 238.148972,180.785614 
z"/>
</svg>