<svg version="1.1" id="Layer_1" xmlns="http://www.w3.org/2000/svg" xmlns:xlink="http://www.w3.org/1999/xlink" x="0px" y="0px"
	 width="100%" viewBox="0 0 500 500" enable-background="new 0 0 500 500" xml:space="preserve">
<path fill="#1C31A6" opacity="1.000000" stroke="none" 
	d="
M320.000000,501.000000 
	C213.333359,501.000000 107.166718,501.000000 1.000057,501.000000 
	C1.000038,334.333405 1.000038,167.666794 1.000019,1.000146 
	C167.666565,1.000098 334.333130,1.000098 500.999756,1.000049 
	C500.999847,167.666519 500.999847,334.333038 500.999939,500.999786 
	C440.833344,501.000000 380.666656,501.000000 320.000000,501.000000 
M235.539368,320.656372 
	C235.496475,326.099792 235.453568,331.543213 235.231827,337.872345 
	C235.266174,340.284088 235.300507,342.695801 235.159363,345.781067 
	C235.126526,348.771423 234.719330,351.823975 235.201874,354.728699 
	C235.489197,356.458282 237.174957,357.955566 238.231995,359.557281 
	C239.425766,358.047974 241.527725,356.611053 241.654770,355.016785 
	C242.181015,348.412720 242.110214,341.761139 242.528610,334.243835 
	C242.573776,331.789337 242.618942,329.334869 242.844070,326.103638 
	C243.226639,312.646545 244.047501,299.182129 243.822495,285.735199 
	C243.693649,278.035767 246.356430,273.900879 253.358170,270.393799 
	C278.326233,257.887604 300.912323,241.919235 320.417572,220.903122 
	C323.537659,217.454483 326.784729,214.111343 329.754333,210.537674 
	C339.146454,199.235062 347.651825,187.348007 351.415314,172.852768 
	C355.676910,156.439056 350.515625,145.756577 334.885590,139.257706 
	C329.128143,136.863785 322.847900,135.727127 316.257233,133.542023 
	C315.032196,133.095886 313.811829,132.278122 312.581360,132.262604 
	C303.012024,132.141968 293.439575,132.102692 283.871368,132.249969 
	C282.602692,132.269501 281.352386,133.481369 279.632812,134.391037 
	C279.308960,134.330307 278.985138,134.269592 277.664398,134.138107 
	C273.343658,134.921677 269.022888,135.705261 263.993988,136.804245 
	C241.505997,141.144699 219.613449,147.342636 199.907364,159.380173 
	C194.938477,162.415436 190.471970,166.765533 186.834473,171.351990 
	C183.056412,176.115738 184.286346,181.785294 189.267883,185.353165 
	C192.863937,187.928741 197.104645,189.604263 201.713165,191.972351 
	C211.190262,194.383316 220.591568,197.183807 230.174911,199.048782 
	C235.338791,200.053711 237.320923,201.773010 237.127884,207.319778 
	C236.473770,226.115143 235.963760,244.936768 236.275452,263.733826 
	C236.396500,271.033569 233.898270,274.786774 227.286469,276.948273 
	C210.258255,282.514954 193.306000,288.314331 176.332504,294.047729 
	C173.845230,294.887878 171.407761,295.875549 168.947250,296.794952 
	C169.088043,297.528992 169.228836,298.263000 169.369629,298.997040 
	C171.397629,298.997040 173.577530,299.490662 175.430099,298.920563 
	C193.656296,293.311951 211.830032,287.532715 230.011993,281.780823 
	C231.674896,281.254761 233.291534,280.582520 235.862137,279.634125 
	C235.862137,292.465973 235.862137,304.365906 235.660965,316.968414 
	C235.709076,317.931793 235.757202,318.895203 235.539368,320.656372 
z"/>
<path fill="#C0C2BE" opacity="1.000000" stroke="none" 
	d="
M242.664093,326.880371 
	C242.618942,329.334869 242.573776,331.789337 242.192322,334.937683 
	C240.859024,342.814636 239.862000,349.997772 238.864990,357.180908 
	C238.269424,357.202240 237.673874,357.223572 237.078308,357.244904 
	C236.497162,353.199127 235.916016,349.153320 235.334854,345.107544 
	C235.300507,342.695801 235.266174,340.284088 235.564743,337.162537 
	C236.246613,330.974060 236.595566,325.495361 236.950226,319.546997 
	C236.976791,306.340759 236.997635,293.604248 236.803680,280.608032 
	C234.568222,280.261963 232.340393,279.574982 230.561295,280.188721 
	C220.663879,283.603149 210.892319,287.380524 201.032867,290.908478 
	C199.385269,291.498047 197.517883,291.473358 195.752075,291.732513 
	C206.583038,286.499481 217.420776,281.930725 228.477097,277.972626 
	C235.613998,275.417694 238.058426,270.605042 238.009521,263.482971 
	C237.878036,244.335602 237.850098,225.185303 238.061890,206.039246 
	C238.117584,201.004852 236.028915,199.153717 231.325806,198.085419 
	C221.131699,195.769897 211.087723,192.793304 200.615601,190.027985 
	C197.131027,188.212479 193.777328,186.769180 190.944092,184.634964 
	C184.885788,180.071381 184.501846,174.908722 189.805710,169.727386 
	C190.701492,168.852280 192.955566,169.367554 194.531433,169.229462 
	C194.480774,169.218475 194.504181,169.117508 194.280457,169.331726 
	C193.723892,170.053726 193.391037,170.561523 193.040283,171.044876 
	C193.022369,171.020432 193.082947,171.018890 192.898865,171.266174 
	C192.502350,171.868057 192.289932,172.222626 192.097198,172.723007 
	C192.116898,172.868820 191.932632,173.098251 191.745331,173.315094 
	C191.703751,175.006210 191.849472,176.480453 192.027740,177.964676 
	C192.060287,177.974640 192.035645,178.038071 192.143341,178.305542 
	C192.591248,179.044647 192.931488,179.516296 193.150574,179.990143 
	C193.029404,179.992325 193.025085,179.750000 193.218048,179.965057 
	C193.694183,180.441666 193.977356,180.703217 194.141983,180.978455 
	C194.023453,180.992126 193.996155,180.755081 194.229156,180.946075 
	C194.778976,181.384628 195.095795,181.632187 195.247650,181.856079 
	C195.082687,181.832413 195.130188,181.502533 195.343674,181.725555 
	C196.067886,182.271194 196.578629,182.593781 197.063095,182.936615 
	C197.036835,182.956848 197.045151,182.891052 197.265656,183.069519 
	C197.995148,183.491425 198.504135,183.734863 199.008194,183.987625 
	C199.003265,183.996948 199.021011,183.982803 199.208710,184.255219 
	C200.825455,185.043671 202.254486,185.559692 203.766510,186.041351 
	C203.849503,186.006973 203.974991,186.135544 204.169846,186.413391 
	C212.046326,188.746185 219.727966,190.801102 227.579926,192.839493 
	C227.750275,192.822968 228.044159,192.998489 228.351364,193.192673 
	C236.259460,196.343964 238.010956,195.033554 237.223770,187.187851 
	C236.910126,184.061920 236.938889,180.901611 236.818054,177.789795 
	C236.824341,177.822617 236.759247,177.807419 237.188354,177.793518 
	C238.188339,177.727814 238.759186,177.676010 239.273514,177.689453 
	C239.216980,177.754700 239.086609,177.641464 239.275879,177.868500 
	C239.730743,178.387711 239.996368,178.679916 240.195114,178.941956 
	C240.128250,178.911804 240.188690,178.778122 240.154816,179.246857 
	C241.092377,184.466019 242.063797,189.216446 243.014130,193.978302 
	C242.993011,193.989731 243.026077,193.952362 243.172852,194.140900 
	C243.531860,194.568527 243.771133,194.776566 244.031891,194.968018 
	C244.026352,194.982529 244.054535,194.966949 244.325287,195.198914 
	C247.894623,196.287231 251.258423,196.952988 254.473694,198.052902 
	C257.764313,199.178589 260.909454,200.729706 264.086487,202.063568 
	C264.054718,202.032516 264.099762,202.108093 263.693726,202.083618 
	C261.220886,202.275070 259.154114,202.490997 256.789856,202.740204 
	C255.940384,202.576157 255.388412,202.378845 254.603607,201.899414 
	C247.207581,198.086212 241.218948,200.356506 241.904678,208.639954 
	C242.504028,215.880096 242.027374,223.209091 242.031281,230.498825 
	C242.037064,241.267685 241.945679,252.038361 242.139359,262.803894 
	C242.179474,265.033508 241.216705,268.782013 245.915833,267.940430 
	C245.931595,267.903107 246.006256,267.934540 246.273499,267.858582 
	C247.024277,267.506683 247.507828,267.230743 247.989655,266.982086 
	C247.987930,267.009399 247.946335,266.973816 248.216797,266.892456 
	C248.965683,266.523376 249.444107,266.235687 249.929306,265.935364 
	C249.936066,265.922668 249.963806,265.930115 250.327789,265.900085 
	C252.782471,264.567780 254.873184,263.265503 257.129578,261.732849 
	C257.816528,261.301117 258.337799,261.099762 259.147308,260.789978 
	C259.946991,260.329102 260.458435,259.976624 260.962280,259.774414 
	C260.954712,259.924652 260.654205,259.909454 260.883911,259.763916 
	C261.397369,259.395905 261.681122,259.173462 261.981903,258.975525 
	C261.998901,259.000000 261.956024,258.958466 262.268616,258.907104 
	C263.389923,258.246948 264.198639,257.638153 265.004944,257.007263 
	C265.002533,256.985138 265.037811,257.012329 265.304718,256.914124 
	C266.042206,256.497650 266.512787,256.179382 266.971619,255.897003 
	C266.959839,255.932892 266.888123,255.909317 267.205627,255.859680 
	C268.335754,255.190308 269.148346,254.570572 269.977722,253.976425 
	C269.994507,254.002014 269.949707,253.958633 270.263611,253.899460 
	C271.366577,253.199844 272.155609,252.559387 273.063477,251.694519 
	C273.479218,251.322495 273.776184,251.174911 274.337372,250.920273 
	C275.063660,250.478485 275.525757,250.143738 275.982574,249.893921 
	C275.977325,249.978851 275.807434,249.968216 276.021912,249.824585 
	C276.493683,249.454132 276.750916,249.227325 277.005371,249.002472 
	C277.002625,249.004456 276.997406,249.006714 277.309265,248.945496 
	C278.406494,248.242126 279.191864,247.599960 279.985138,246.981766 
	C279.993011,247.005737 279.954163,246.973236 280.227783,246.848358 
	C280.969818,246.340515 281.438263,245.957535 281.921875,245.726837 
	C281.937012,245.879105 281.632446,245.909271 281.869354,245.734497 
	C282.410675,245.312775 282.715057,245.065842 283.005585,244.916290 
	C282.991699,245.013672 282.796906,244.985977 283.006592,244.827560 
	C283.467377,244.426559 283.718475,244.183990 284.088989,243.714539 
	C284.506165,243.334106 284.803955,243.180542 285.359283,242.913651 
	C286.060669,242.453186 286.504547,242.106049 286.946625,241.843369 
	C286.944824,241.927826 286.775909,241.924118 286.994415,241.775604 
	C287.475006,241.392746 287.737061,241.158386 287.992920,240.957169 
	C287.986725,240.990311 287.922058,240.971161 288.194275,240.837646 
	C288.917023,240.295105 289.367584,239.886093 289.854279,239.637573 
	C289.890442,239.798080 289.569397,239.870224 289.806458,239.676483 
	C290.358734,239.223419 290.673950,238.964096 290.972107,238.838089 
	C290.955078,238.971405 290.688446,238.937256 290.915710,238.760925 
	C291.423248,238.322861 291.703461,238.061127 291.978363,237.890991 
	C291.973053,237.982590 291.789825,237.971878 292.002686,237.813477 
	C292.470032,237.411026 292.724518,237.166962 292.980103,236.955170 
	C292.981232,236.987442 292.917664,236.976196 293.117493,236.837067 
	C293.573242,236.495956 293.802155,236.266968 294.001404,236.004578 
	C293.998779,235.998169 294.011078,236.005417 294.276123,235.868347 
	C294.987671,235.329254 295.434143,234.927231 295.914795,234.690155 
	C295.949005,234.855087 295.619141,234.923370 295.844727,234.721283 
	C296.366943,234.243469 296.663574,233.967712 296.926941,233.796738 
	C296.893707,233.901505 296.684204,233.834900 296.955017,233.696640 
	C297.791046,232.997482 298.356262,232.436569 299.017029,231.659576 
	C299.310608,231.174683 299.574615,231.015015 300.105286,230.818359 
	C300.562408,230.459808 300.789459,230.219650 301.086700,229.727142 
	C301.397461,229.229858 301.672943,229.063919 302.200989,228.869629 
	C302.629059,228.536789 302.839691,228.311737 303.013855,228.031631 
	C303.006531,228.003891 303.059296,228.026443 303.317200,227.883942 
	C304.010132,227.338348 304.445099,226.935287 304.932190,226.688934 
	C304.984283,226.845642 304.670837,226.949783 304.870728,226.719910 
	C305.358124,226.201828 305.645691,225.913635 305.938293,225.775604 
	C305.943359,225.925781 305.643005,225.935806 305.857483,225.722107 
	C306.371826,225.239258 306.671692,224.970108 306.979431,224.830780 
	C306.987305,224.960602 306.727661,224.976273 306.923218,224.748871 
	C307.392334,224.226715 307.665955,223.931961 307.946472,223.787476 
	C307.953430,223.937744 307.652893,223.951538 307.869629,223.735565 
	C308.377380,223.233368 308.668396,222.947144 308.960754,222.810089 
	C308.962067,222.959244 308.663757,222.961823 308.878845,222.744354 
	C309.380585,222.236465 309.667236,221.946030 309.957825,221.804535 
	C309.961792,221.953476 309.663910,221.961319 309.878723,221.744537 
	C310.382751,221.241837 310.671936,220.955933 310.967163,220.814896 
	C310.973236,220.959778 310.683472,220.971832 310.889679,220.747498 
	C311.378571,220.230591 311.661255,219.938004 311.953400,219.793610 
	C311.962860,219.941833 311.666443,219.960663 311.873840,219.735046 
	C312.366180,219.214996 312.651154,218.920578 312.954102,218.779785 
	C312.972107,218.933426 312.664825,218.969299 312.859222,218.732727 
	C313.323273,218.186630 313.592926,217.877106 313.831116,217.714905 
	C313.799683,217.862244 313.505066,217.799179 313.735535,217.616638 
	C314.315399,216.974442 314.664795,216.514786 315.115723,215.827515 
	C315.409149,215.311600 315.669312,215.112625 316.184570,214.849396 
	C316.608887,214.475098 316.815460,214.228394 317.068726,213.730637 
	C317.320648,213.214218 317.574463,213.036499 318.107910,212.810089 
	C318.537109,212.391220 318.766235,212.134674 318.986115,211.919052 
	C318.976898,211.959961 318.895081,211.941467 319.227295,211.838989 
	C320.984558,209.812439 322.409607,207.888367 323.832214,205.919876 
	C323.829773,205.875458 323.918610,205.870438 324.102783,205.687164 
	C324.503998,205.230209 324.721100,204.956543 324.932068,204.817657 
	C324.925995,204.952438 324.656433,204.940170 324.866180,204.735657 
	C325.387634,204.046066 325.699341,203.561020 326.003296,203.043564 
	C325.995544,203.011169 326.061798,203.004303 326.233276,202.845825 
	C326.621674,202.461792 326.807983,202.213287 327.042480,201.707245 
	C327.286255,201.168015 327.531281,200.955688 328.041199,200.642319 
	C328.447296,200.164673 328.668610,199.880402 328.873779,199.756561 
	C328.857666,199.916977 328.536804,199.884583 328.753723,199.671844 
	C329.276367,198.951279 329.582092,198.443436 329.884155,197.912140 
	C329.880493,197.888687 329.927948,197.889893 330.199219,197.739838 
	C330.973846,196.714615 331.477203,195.839447 331.993774,194.981689 
	C332.006989,194.999084 331.965424,194.986206 332.234558,194.823273 
	C332.994629,193.770035 333.485535,192.879745 333.983368,191.989838 
	C333.990295,191.990204 333.986298,191.975525 334.284241,191.819061 
	C335.369598,190.082489 336.157074,188.502365 336.959686,186.949280 
	C336.974823,186.976303 336.913513,186.985413 337.084900,186.755890 
	C337.483612,186.006821 337.710968,185.487274 337.947815,184.964172 
	C337.957336,184.960617 337.952026,184.940536 338.117065,184.712357 
	C338.491882,183.964661 338.701660,183.445129 338.953888,182.962494 
	C338.996338,182.999390 338.914886,182.924652 339.201111,182.728851 
	C343.192139,177.989944 344.461700,172.831451 343.363190,166.714478 
	C343.448639,165.871964 343.562897,165.396790 343.871216,164.686920 
	C343.385010,161.333374 342.704773,158.214523 341.934753,154.983826 
	C341.844971,154.871948 341.912506,154.593140 341.768280,154.343796 
	C341.409424,153.784454 341.194763,153.474457 340.914368,153.145050 
	C340.848572,153.125641 340.877686,152.991592 340.771301,152.728470 
	C340.311218,152.011169 339.957489,151.556976 339.742981,151.087112 
	C339.882172,151.071426 339.913452,151.349823 339.724609,151.120880 
	C339.269562,150.599319 339.003296,150.306686 338.804199,150.049438 
	C338.871368,150.084839 338.800476,150.219101 338.715088,149.893768 
	C337.426849,148.710770 336.224030,147.853119 335.009644,147.004333 
	C334.998077,147.013168 334.998810,146.984390 334.809326,146.812836 
	C334.339783,146.445572 334.059692,146.249893 333.878723,146.038910 
	C333.977814,146.023621 334.008301,146.221832 333.767456,146.034119 
	C332.979187,145.595184 332.431763,145.343964 331.917358,145.081116 
	C331.950439,145.069489 331.972412,145.136063 331.746552,144.963623 
	C331.009521,144.566711 330.498352,144.342239 329.943481,144.127792 
	C329.899780,144.137817 329.879578,144.050461 329.666077,143.760040 
	C328.063599,143.057541 326.674561,142.645447 325.185791,142.256836 
	C325.085999,142.280319 324.970551,142.110916 324.752563,141.816864 
	C323.341736,141.027130 322.166656,140.150620 320.953247,140.093857 
	C306.710938,139.427567 292.465302,138.802261 278.214081,138.385941 
	C275.715942,138.312958 273.465576,138.742004 272.995911,135.441620 
	C273.009003,135.413559 273.059174,135.450867 273.574280,135.536407 
	C284.381165,134.883469 294.672943,134.144989 305.276428,133.363342 
	C306.400909,133.470169 307.213715,133.620163 308.348358,133.980133 
	C310.911591,134.762131 313.153839,135.824768 315.394257,135.820999 
	C324.953033,135.804916 333.235199,139.605682 341.266815,144.111893 
	C348.310913,148.064041 352.731323,157.980072 351.503174,165.919617 
	C349.814209,176.838486 345.447449,186.712585 339.175720,195.613052 
	C333.053589,204.301224 326.213562,212.483536 319.386414,221.023346 
	C315.902924,224.065079 312.678070,226.925217 309.547791,229.885361 
	C291.867279,246.604767 271.486969,259.441101 250.142868,270.799622 
	C244.342682,273.886292 242.030838,278.286713 242.034851,284.460388 
	C242.041443,294.625214 241.955887,304.790558 242.036789,314.954651 
	C242.068436,318.931305 242.444763,322.905212 242.664093,326.880371 
z"/>
<path fill="#B5BBC9" opacity="1.000000" stroke="none" 
	d="
M272.982788,135.469696 
	C273.465576,138.742004 275.715942,138.312958 278.214081,138.385941 
	C292.465302,138.802261 306.710938,139.427567 320.953247,140.093857 
	C322.166656,140.150620 323.341736,141.027130 324.338257,141.797775 
	C316.076172,141.051804 308.030609,139.377548 299.941101,139.127731 
	C271.246704,138.241577 243.748276,144.415359 217.422699,155.373795 
	C209.293655,158.757614 202.167435,164.550537 194.582077,169.240417 
	C192.955566,169.367554 190.701492,168.852280 189.805710,169.727386 
	C184.501846,174.908722 184.885788,180.071381 190.944092,184.634964 
	C193.777328,186.769180 197.131027,188.212479 200.629456,190.292511 
	C201.025986,190.971146 201.041916,191.326172 201.057831,191.681213 
	C197.104645,189.604263 192.863937,187.928741 189.267883,185.353165 
	C184.286346,181.785294 183.056412,176.115738 186.834473,171.351990 
	C190.471970,166.765533 194.938477,162.415436 199.907364,159.380173 
	C219.613449,147.342636 241.505997,141.144699 264.832764,136.599396 
	C268.108643,136.086258 270.545715,135.777985 272.982788,135.469696 
z"/>
<path fill="#B8BCC9" opacity="1.000000" stroke="none" 
	d="
M201.385498,191.826782 
	C201.041916,191.326172 201.025986,190.971146 200.996216,190.351578 
	C211.087723,192.793304 221.131699,195.769897 231.325806,198.085419 
	C236.028915,199.153717 238.117584,201.004852 238.061890,206.039246 
	C237.850098,225.185303 237.878036,244.335602 238.009521,263.482971 
	C238.058426,270.605042 235.613998,275.417694 228.477097,277.972626 
	C217.420776,281.930725 206.583038,286.499481 195.752075,291.732513 
	C197.517883,291.473358 199.385269,291.498047 201.032867,290.908478 
	C210.892319,287.380524 220.663879,283.603149 230.561295,280.188721 
	C232.340393,279.574982 234.568222,280.261963 236.657547,281.006165 
	C236.558746,283.628571 236.276794,285.591278 236.243210,287.558197 
	C236.079727,297.126801 235.982697,306.696503 235.862137,316.265839 
	C235.862137,304.365906 235.862137,292.465973 235.862137,279.634125 
	C233.291534,280.582520 231.674896,281.254761 230.011993,281.780823 
	C211.830032,287.532715 193.656296,293.311951 175.430099,298.920563 
	C173.577530,299.490662 171.397629,298.997040 169.369629,298.997040 
	C169.228836,298.263000 169.088043,297.528992 168.947250,296.794952 
	C171.407761,295.875549 173.845230,294.887878 176.332504,294.047729 
	C193.306000,288.314331 210.258255,282.514954 227.286469,276.948273 
	C233.898270,274.786774 236.396500,271.033569 236.275452,263.733826 
	C235.963760,244.936768 236.473770,226.115143 237.127884,207.319778 
	C237.320923,201.773010 235.338791,200.053711 230.174911,199.048782 
	C220.591568,197.183807 211.190262,194.383316 201.385498,191.826782 
z"/>
<path fill="#B8BCC9" opacity="1.000000" stroke="none" 
	d="
M242.754089,326.492004 
	C242.444763,322.905212 242.068436,318.931305 242.036789,314.954651 
	C241.955887,304.790558 242.041443,294.625214 242.034851,284.460388 
	C242.030838,278.286713 244.342682,273.886292 250.142868,270.799622 
	C271.486969,259.441101 291.867279,246.604767 309.547791,229.885361 
	C312.678070,226.925217 315.902924,224.065079 319.441254,221.103485 
	C319.798401,221.048203 319.903015,221.209335 319.903015,221.209335 
	C300.912323,241.919235 278.326233,257.887604 253.358170,270.393799 
	C246.356430,273.900879 243.693649,278.035767 243.822495,285.735199 
	C244.047501,299.182129 243.226639,312.646545 242.754089,326.492004 
z"/>
<path fill="#B5BBC9" opacity="1.000000" stroke="none" 
	d="
M320.160278,221.056229 
	C319.903015,221.209335 319.798401,221.048203 319.743561,220.968079 
	C326.213562,212.483536 333.053589,204.301224 339.175720,195.613052 
	C345.447449,186.712585 349.814209,176.838486 351.503174,165.919617 
	C352.731323,157.980072 348.310913,148.064041 341.266815,144.111893 
	C333.235199,139.605682 324.953033,135.804916 315.394257,135.820999 
	C313.153839,135.824768 310.911591,134.762131 308.792786,133.941742 
	C311.545654,133.801254 314.175873,133.909149 316.806122,134.017029 
	C322.847900,135.727127 329.128143,136.863785 334.885590,139.257706 
	C350.515625,145.756577 355.676910,156.439056 351.415314,172.852768 
	C347.651825,187.348007 339.146454,199.235062 329.754333,210.537674 
	C326.784729,214.111343 323.537659,217.454483 320.160278,221.056229 
z"/>
<path fill="#B8BCC9" opacity="1.000000" stroke="none" 
	d="
M235.247101,345.444305 
	C235.916016,349.153320 236.497162,353.199127 237.078308,357.244904 
	C237.673874,357.223572 238.269424,357.202240 238.864990,357.180908 
	C239.862000,349.997772 240.859024,342.814636 242.057358,335.379242 
	C242.110214,341.761139 242.181015,348.412720 241.654770,355.016785 
	C241.527725,356.611053 239.425766,358.047974 238.231995,359.557281 
	C237.174957,357.955566 235.489197,356.458282 235.201874,354.728699 
	C234.719330,351.823975 235.126526,348.771423 235.247101,345.444305 
z"/>
<path fill="#2E3C89" opacity="1.000000" stroke="none" 
	d="
M316.531677,133.779526 
	C314.175873,133.909149 311.545654,133.801254 308.470947,133.731766 
	C307.213715,133.620163 306.400909,133.470169 304.823425,133.267044 
	C296.070374,133.522949 288.081970,133.831985 280.093567,134.141022 
	C281.352386,133.481369 282.602692,132.269501 283.871368,132.249969 
	C293.439575,132.102692 303.012024,132.141968 312.581360,132.262604 
	C313.811829,132.278122 315.032196,133.095886 316.531677,133.779526 
z"/>
<path fill="#B5BBC9" opacity="1.000000" stroke="none" 
	d="
M279.863190,134.266022 
	C288.081970,133.831985 296.070374,133.522949 304.511749,133.310196 
	C294.672943,134.144989 284.381165,134.883469 273.974548,135.409409 
	C275.460236,134.867538 277.060760,134.538208 278.661285,134.208878 
	C278.985138,134.269592 279.308960,134.330307 279.863190,134.266022 
z"/>
<path fill="#BEC6D7" opacity="1.000000" stroke="none" 
	d="
M235.761551,316.617126 
	C235.982697,306.696503 236.079727,297.126801 236.243210,287.558197 
	C236.276794,285.591278 236.558746,283.628571 236.872345,281.265808 
	C236.997635,293.604248 236.976791,306.340759 236.665771,319.507141 
	C236.185501,319.910828 235.995407,319.884705 235.805328,319.858582 
	C235.757202,318.895203 235.709076,317.931793 235.761551,316.617126 
z"/>
<path fill="#B8BCC9" opacity="1.000000" stroke="none" 
	d="
M235.672333,320.257477 
	C235.995407,319.884705 236.185501,319.910828 236.660065,319.976807 
	C236.595566,325.495361 236.246613,330.974060 235.654160,336.719696 
	C235.453568,331.543213 235.496475,326.099792 235.672333,320.257477 
z"/>
<path fill="#2E3C89" opacity="1.000000" stroke="none" 
	d="
M278.162842,134.173492 
	C277.060760,134.538208 275.460236,134.867538 273.459442,135.323868 
	C273.059174,135.450867 273.009003,135.413559 272.995911,135.441620 
	C270.545715,135.777985 268.108643,136.086258 265.186859,136.441696 
	C269.022888,135.705261 273.343658,134.921677 278.162842,134.173492 
z"/>
<path fill="#1D32A4" opacity="1.000000" stroke="none" 
	d="
M194.531433,169.229431 
	C202.167435,164.550537 209.293655,158.757614 217.422699,155.373795 
	C243.748276,144.415359 271.246704,138.241577 299.941101,139.127731 
	C308.030609,139.377548 316.076172,141.051804 324.556213,142.091827 
	C324.970551,142.110916 325.085999,142.280319 325.460541,142.496704 
	C327.183258,143.158875 328.531403,143.604660 329.879578,144.050461 
	C329.879578,144.050461 329.899780,144.137817 330.116272,144.356750 
	C330.879303,144.762482 331.425842,144.949265 331.972412,145.136063 
	C331.972412,145.136063 331.950439,145.069489 332.102081,145.330414 
	C332.838593,145.801514 333.423431,146.011673 334.008301,146.221832 
	C334.008301,146.221832 333.977814,146.023621 334.000427,146.286652 
	C334.348328,146.694580 334.673553,146.839493 334.998810,146.984390 
	C334.998810,146.984390 334.998077,147.013168 335.190613,147.259995 
	C336.522278,148.410919 337.661377,149.315002 338.800476,150.219101 
	C338.800476,150.219101 338.871368,150.084839 338.901611,150.350784 
	C339.259033,150.861099 339.586243,151.105469 339.913452,151.349823 
	C339.913452,151.349823 339.882172,151.071426 339.825928,151.377975 
	C340.138977,152.120209 340.508331,152.555908 340.877686,152.991608 
	C340.877686,152.991592 340.848572,153.125641 340.974152,153.431824 
	C341.370667,154.023056 341.641571,154.308090 341.912506,154.593140 
	C341.912506,154.593140 341.844971,154.871948 341.960175,155.385147 
	C342.609314,158.906097 343.143219,161.913864 343.677155,164.921616 
	C343.562897,165.396790 343.448639,165.871964 343.249695,167.103958 
	C341.748322,172.882080 340.331604,177.903366 338.914886,182.924652 
	C338.914886,182.924652 338.996338,182.999390 338.731171,183.150238 
	C338.294678,183.847565 338.123352,184.394058 337.952026,184.940536 
	C337.952026,184.940536 337.957336,184.960617 337.718048,185.146515 
	C337.290344,185.883408 337.101929,186.434402 336.913513,186.985413 
	C336.913513,186.985413 336.974823,186.976303 336.694611,187.143219 
	C335.605042,188.865265 334.795654,190.420395 333.986298,191.975525 
	C333.986298,191.975525 333.990295,191.990204 333.720703,192.150177 
	C332.955902,193.202164 332.460663,194.094177 331.965424,194.986206 
	C331.965424,194.986206 332.006989,194.999084 331.729584,195.138840 
	C330.944092,196.149033 330.436035,197.019455 329.927948,197.889893 
	C329.927948,197.889893 329.880493,197.888687 329.619507,198.061005 
	C329.084625,198.783722 328.810699,199.334152 328.536804,199.884583 
	C328.536804,199.884583 328.857666,199.916977 328.605133,199.871338 
	C328.187195,200.162369 328.021759,200.499023 327.856354,200.835693 
	C327.531281,200.955688 327.286255,201.168015 326.817749,201.811707 
	C326.230011,202.364517 326.079193,202.649033 326.061798,203.004303 
	C326.061798,203.004303 325.995544,203.011169 325.747559,203.194153 
	C325.218506,203.898132 324.937469,204.419144 324.656433,204.940170 
	C324.656433,204.940170 324.925995,204.952438 324.674927,204.931091 
	C324.255432,205.229980 324.087036,205.550217 323.918640,205.870453 
	C323.918610,205.870438 323.829773,205.875458 323.555603,206.073257 
	C321.819336,208.161194 320.357208,210.051331 318.895081,211.941467 
	C318.895081,211.941467 318.976898,211.959961 318.735840,212.025330 
	C318.299133,212.384598 318.103485,212.678497 317.907837,212.972412 
	C317.574463,213.036499 317.320648,213.214218 316.833679,213.830292 
	C316.346619,214.437668 316.172211,214.720306 315.997803,215.002945 
	C315.669312,215.112625 315.409149,215.311600 314.848328,215.955231 
	C314.154572,216.806778 313.829834,217.302979 313.505066,217.799179 
	C313.505066,217.799179 313.799683,217.862244 313.523254,217.845306 
	C313.052826,218.208679 312.858826,218.588989 312.664825,218.969299 
	C312.664825,218.969299 312.972107,218.933426 312.636841,218.888092 
	C312.089844,219.215378 311.878143,219.588013 311.666443,219.960663 
	C311.666443,219.960663 311.962860,219.941833 311.635864,219.896149 
	C311.100372,220.224243 310.891907,220.598038 310.683472,220.971832 
	C310.683472,220.971832 310.973236,220.959778 310.650116,220.912170 
	C310.105957,221.230148 309.884949,221.595734 309.663940,221.961334 
	C309.663910,221.961319 309.961792,221.953476 309.643585,221.910034 
	C309.104858,222.231659 308.884308,222.596741 308.663757,222.961823 
	C308.663757,222.961823 308.962067,222.959244 308.644348,222.911438 
	C308.102081,223.226273 307.877472,223.588898 307.652893,223.951538 
	C307.652893,223.951538 307.953430,223.937744 307.632385,223.896286 
	C307.116791,224.228638 306.922211,224.602448 306.727661,224.976257 
	C306.727661,224.976273 306.987305,224.960602 306.651428,224.901520 
	C306.091370,225.206894 305.867188,225.571350 305.643005,225.935806 
	C305.643005,225.935806 305.943359,225.925781 305.610596,225.866913 
	C305.075531,226.188629 304.873199,226.569214 304.670837,226.949799 
	C304.670837,226.949783 304.984283,226.845642 304.630798,226.776276 
	C303.871338,227.146759 303.465332,227.586609 303.059296,228.026459 
	C303.059296,228.026443 303.006531,228.003891 302.782166,228.109680 
	C302.271210,228.406082 302.089508,228.669174 302.012695,229.004700 
	C301.672943,229.063919 301.397461,229.229858 300.843079,229.818726 
	C300.301453,230.411453 300.103027,230.687958 299.904602,230.964478 
	C299.574615,231.015015 299.310608,231.174683 298.733643,231.768845 
	C297.797852,232.674438 297.241028,233.254669 296.684204,233.834900 
	C296.684204,233.834900 296.893707,233.901505 296.616760,233.900024 
	C296.099609,234.240158 295.859375,234.581772 295.619141,234.923370 
	C295.619141,234.923370 295.949005,234.855087 295.615540,234.788284 
	C294.858398,235.149460 294.434753,235.577438 294.011078,236.005417 
	C294.011078,236.005417 293.998779,235.998169 293.756958,236.081848 
	C293.315948,236.435745 293.116791,236.705963 292.917664,236.976196 
	C292.917664,236.976196 292.981232,236.987442 292.715088,237.042786 
	C292.229218,237.389374 292.009521,237.680618 291.789825,237.971863 
	C291.789825,237.971878 291.973053,237.982590 291.688965,237.987976 
	C291.166077,238.307983 290.927246,238.622620 290.688446,238.937256 
	C290.688446,238.937256 290.955078,238.971405 290.652710,238.921356 
	C290.090057,239.204285 289.829742,239.537262 289.569397,239.870239 
	C289.569397,239.870224 289.890442,239.798080 289.554840,239.743225 
	C288.786865,240.115952 288.354462,240.543564 287.922058,240.971161 
	C287.922058,240.971161 287.986725,240.990311 287.720642,241.027313 
	C287.228333,241.350922 287.002106,241.637527 286.775909,241.924118 
	C286.775909,241.924118 286.944824,241.927826 286.666199,241.924652 
	C285.958954,242.289978 285.530365,242.658493 285.101746,243.026993 
	C284.803955,243.180542 284.506165,243.334106 283.825806,243.801025 
	C283.227783,244.404922 283.012360,244.695465 282.796936,244.985992 
	C282.796906,244.985977 282.991699,245.013672 282.700806,244.994446 
	C282.150757,245.286575 281.891602,245.597931 281.632446,245.909271 
	C281.632446,245.909271 281.937012,245.879105 281.618652,245.816620 
	C280.851562,246.160492 280.402863,246.566864 279.954163,246.973236 
	C279.954163,246.973236 279.993011,247.005737 279.688171,247.062759 
	C278.588043,247.748764 277.792725,248.377731 276.997406,249.006714 
	C276.997406,249.006714 277.002625,249.004456 276.738922,249.065216 
	C276.252625,249.406723 276.030029,249.687469 275.807434,249.968216 
	C275.807434,249.968216 275.977325,249.978851 275.694275,249.963654 
	C274.965179,250.308075 274.519165,250.667694 274.073151,251.027313 
	C273.776184,251.174911 273.479218,251.322495 272.761536,251.766418 
	C271.543793,252.694717 270.746735,253.326675 269.949707,253.958633 
	C269.949707,253.958633 269.994507,254.002014 269.672089,254.040833 
	C268.529144,254.689545 267.708649,255.299423 266.888123,255.909317 
	C266.888123,255.909317 266.959839,255.932892 266.681274,255.953278 
	C265.947754,256.319855 265.492767,256.666107 265.037811,257.012329 
	C265.037811,257.012329 265.002533,256.985138 264.701141,257.068054 
	C263.585175,257.753448 262.770599,258.355957 261.956024,258.958466 
	C261.956024,258.958466 261.998901,259.000000 261.701935,259.041077 
	C261.154724,259.357910 260.904449,259.633667 260.654175,259.909424 
	C260.654205,259.909454 260.954712,259.924652 260.643433,259.844055 
	C259.841156,260.141785 259.350128,260.520111 258.859070,260.898407 
	C258.337799,261.099762 257.816528,261.301117 256.787964,261.788055 
	C254.175018,263.359131 252.069412,264.644623 249.963806,265.930115 
	C249.963806,265.930115 249.936066,265.922668 249.644394,265.969116 
	C248.883926,266.334961 248.415131,266.654388 247.946335,266.973816 
	C247.946335,266.973816 247.987930,267.009399 247.698822,267.002319 
	C246.941895,267.308319 246.474075,267.621429 246.006256,267.934540 
	C246.006256,267.934540 245.931595,267.903107 245.494965,267.895050 
	C244.613586,266.267548 243.789749,264.649933 243.781998,263.028412 
	C243.692764,244.370239 243.717651,225.711472 243.744431,207.052902 
	C243.747009,205.252365 243.965637,203.452103 244.100449,201.401016 
	C247.936752,201.679916 251.386597,201.930725 254.836456,202.181549 
	C255.388412,202.378845 255.940384,202.576157 257.188446,202.839264 
	C259.956299,202.639404 262.028015,202.373749 264.099762,202.108093 
	C264.099762,202.108093 264.054718,202.032516 264.389893,201.866333 
	C263.657806,200.455170 262.776550,198.399796 261.491150,198.104660 
	C255.741882,196.784607 249.877411,195.966370 244.054535,194.966949 
	C244.054535,194.966949 244.026352,194.982529 243.918976,194.751785 
	C243.607620,194.251602 243.345779,194.062042 243.026077,193.952362 
	C243.026077,193.952362 242.993011,193.989731 242.985535,193.558212 
	C242.048279,188.343842 241.118484,183.560974 240.188690,178.778122 
	C240.188690,178.778122 240.128250,178.911804 240.115906,178.627197 
	C239.764572,178.108871 239.425583,177.875168 239.086609,177.641464 
	C239.086609,177.641464 239.216980,177.754700 239.045654,177.490936 
	C238.169312,177.420593 237.464279,177.613998 236.759247,177.807419 
	C236.759247,177.807419 236.824341,177.822617 236.480499,177.989655 
	C235.896942,180.375595 235.233276,182.645248 235.491913,184.804443 
	C236.531738,193.485474 236.637177,193.472839 228.044159,192.998489 
	C228.044159,192.998489 227.750275,192.822968 227.257065,192.617249 
	C219.167572,190.319519 211.571274,188.227539 203.974991,186.135544 
	C203.974991,186.135544 203.849503,186.006973 203.523132,185.837036 
	C201.804855,185.105682 200.412933,184.544250 199.021011,183.982803 
	C199.021011,183.982803 199.003265,183.996948 198.830994,183.754944 
	C198.120880,183.305649 197.583008,183.098358 197.045151,182.891052 
	C197.045151,182.891052 197.036835,182.956848 196.900452,182.675308 
	C196.219437,182.096680 195.674805,181.799606 195.130188,181.502533 
	C195.130188,181.502533 195.082687,181.832413 195.113251,181.560349 
	C194.761276,181.110550 194.378723,180.932816 193.996155,180.755081 
	C193.996155,180.755081 194.023453,180.992126 194.025024,180.695190 
	C193.692764,180.182175 193.358917,179.966095 193.025085,179.750000 
	C193.025085,179.750000 193.029404,179.992325 193.078751,179.695419 
	C192.763947,178.945038 192.399796,178.491547 192.035645,178.038071 
	C192.035645,178.038071 192.060287,177.974640 192.018127,177.559265 
	C191.961517,175.795334 191.947083,174.446793 191.932648,173.098251 
	C191.932632,173.098251 192.116898,172.868820 192.356720,172.528534 
	C192.758682,171.798477 192.920822,171.408676 193.082947,171.018890 
	C193.082947,171.018890 193.022369,171.020432 193.304169,170.882614 
	C193.892029,170.202362 194.198105,169.659943 194.504181,169.117508 
	C194.504181,169.117508 194.480774,169.218475 194.531433,169.229431 
z"/>
<path fill="#B5BBC9" opacity="1.000000" stroke="none" 
	d="
M254.603607,201.899414 
	C251.386597,201.930725 247.936752,201.679916 244.100449,201.401016 
	C243.965637,203.452103 243.747009,205.252365 243.744431,207.052902 
	C243.717651,225.711472 243.692764,244.370239 243.781998,263.028412 
	C243.789749,264.649933 244.613586,266.267548 245.479218,267.932373 
	C241.216705,268.782013 242.179474,265.033508 242.139359,262.803894 
	C241.945679,252.038361 242.037064,241.267685 242.031281,230.498825 
	C242.027374,223.209091 242.504028,215.880096 241.904678,208.639954 
	C241.218948,200.356506 247.207581,198.086212 254.603607,201.899414 
z"/>
<path fill="#B5BBC9" opacity="1.000000" stroke="none" 
	d="
M228.351364,193.192673 
	C236.637177,193.472839 236.531738,193.485474 235.491913,184.804443 
	C235.233276,182.645248 235.896942,180.375595 236.474213,177.956833 
	C236.938889,180.901611 236.910126,184.061920 237.223770,187.187851 
	C238.010956,195.033554 236.259460,196.343964 228.351364,193.192673 
z"/>
<path fill="#B5BBC9" opacity="1.000000" stroke="none" 
	d="
M244.325287,195.198914 
	C249.877411,195.966370 255.741882,196.784607 261.491150,198.104660 
	C262.776550,198.399796 263.657806,200.455170 264.421692,201.897385 
	C260.909454,200.729706 257.764313,199.178589 254.473694,198.052902 
	C251.258423,196.952988 247.894623,196.287231 244.325287,195.198914 
z"/>
<path fill="#B5BBC9" opacity="1.000000" stroke="none" 
	d="
M204.169846,186.413391 
	C211.571274,188.227539 219.167572,190.319519 227.086731,192.633759 
	C219.727966,190.801102 212.046326,188.746185 204.169846,186.413391 
z"/>
<path fill="#B5BBC9" opacity="1.000000" stroke="none" 
	d="
M240.154816,179.246857 
	C241.118484,183.560974 242.048279,188.343842 243.006653,193.546783 
	C242.063797,189.216446 241.092377,184.466019 240.154816,179.246857 
z"/>
<path fill="#B5BBC9" opacity="1.000000" stroke="none" 
	d="
M339.201111,182.728851 
	C340.331604,177.903366 341.748322,172.882080 343.278534,167.471313 
	C344.461700,172.831451 343.192139,177.989944 339.201111,182.728851 
z"/>
<path fill="#B5BBC9" opacity="1.000000" stroke="none" 
	d="
M343.871216,164.686920 
	C343.143219,161.913864 342.609314,158.906097 342.049927,155.497009 
	C342.704773,158.214523 343.385010,161.333374 343.871216,164.686920 
z"/>
<path fill="#B5BBC9" opacity="1.000000" stroke="none" 
	d="
M319.227295,211.838989 
	C320.357208,210.051331 321.819336,208.161194 323.558044,206.117676 
	C322.409607,207.888367 320.984558,209.812439 319.227295,211.838989 
z"/>
<path fill="#B5BBC9" opacity="1.000000" stroke="none" 
	d="
M250.327789,265.900085 
	C252.069412,264.644623 254.175018,263.359131 256.622253,262.018433 
	C254.873184,263.265503 252.782471,264.567780 250.327789,265.900085 
z"/>
<path fill="#B5BBC9" opacity="1.000000" stroke="none" 
	d="
M334.284241,191.819061 
	C334.795654,190.420395 335.605042,188.865265 336.679474,187.116196 
	C336.157074,188.502365 335.369598,190.082489 334.284241,191.819061 
z"/>
<path fill="#B5BBC9" opacity="1.000000" stroke="none" 
	d="
M338.715088,149.893768 
	C337.661377,149.315002 336.522278,148.410919 335.202209,147.251160 
	C336.224030,147.853119 337.426849,148.710770 338.715088,149.893768 
z"/>
<path fill="#B5BBC9" opacity="1.000000" stroke="none" 
	d="
M329.666077,143.760040 
	C328.531403,143.604660 327.183258,143.158875 325.560303,142.473206 
	C326.674561,142.645447 328.063599,143.057541 329.666077,143.760040 
z"/>
<path fill="#B5BBC9" opacity="1.000000" stroke="none" 
	d="
M199.208710,184.255219 
	C200.412933,184.544250 201.804855,185.105682 203.440155,185.871414 
	C202.254486,185.559692 200.825455,185.043671 199.208710,184.255219 
z"/>
<path fill="#B5BBC9" opacity="1.000000" stroke="none" 
	d="
M263.693726,202.083618 
	C262.028015,202.373749 259.956299,202.639404 257.485962,202.806000 
	C259.154114,202.490997 261.220886,202.275070 263.693726,202.083618 
z"/>
<path fill="#B5BBC9" opacity="1.000000" stroke="none" 
	d="
M191.745331,173.315094 
	C191.947083,174.446793 191.961517,175.795334 191.985580,177.549286 
	C191.849472,176.480453 191.703751,175.006210 191.745331,173.315094 
z"/>
<path fill="#B5BBC9" opacity="1.000000" stroke="none" 
	d="
M277.309265,248.945496 
	C277.792725,248.377731 278.588043,247.748764 279.680298,247.038788 
	C279.191864,247.599960 278.406494,248.242126 277.309265,248.945496 
z"/>
<path fill="#B5BBC9" opacity="1.000000" stroke="none" 
	d="
M270.263611,253.899460 
	C270.746735,253.326675 271.543793,252.694717 272.642761,251.990845 
	C272.155609,252.559387 271.366577,253.199844 270.263611,253.899460 
z"/>
<path fill="#B5BBC9" opacity="1.000000" stroke="none" 
	d="
M267.205627,255.859680 
	C267.708649,255.299423 268.529144,254.689545 269.655273,254.015259 
	C269.148346,254.570572 268.335754,255.190308 267.205627,255.859680 
z"/>
<path fill="#B5BBC9" opacity="1.000000" stroke="none" 
	d="
M262.268616,258.907104 
	C262.770599,258.355957 263.585175,257.753448 264.703552,257.090149 
	C264.198639,257.638153 263.389923,258.246948 262.268616,258.907104 
z"/>
<path fill="#B5BBC9" opacity="1.000000" stroke="none" 
	d="
M330.199219,197.739838 
	C330.436035,197.019455 330.944092,196.149033 331.716370,195.121429 
	C331.477203,195.839447 330.973846,196.714615 330.199219,197.739838 
z"/>
<path fill="#B5BBC9" opacity="1.000000" stroke="none" 
	d="
M332.234558,194.823273 
	C332.460663,194.094177 332.955902,193.202164 333.713806,192.149796 
	C333.485535,192.879745 332.994629,193.770035 332.234558,194.823273 
z"/>
<path fill="#B5BBC9" opacity="1.000000" stroke="none" 
	d="
M296.955017,233.696640 
	C297.241028,233.254669 297.797852,232.674438 298.638062,231.984955 
	C298.356262,232.436569 297.791046,232.997482 296.955017,233.696640 
z"/>
<path fill="#B5BBC9" opacity="1.000000" stroke="none" 
	d="
M237.188354,177.793518 
	C237.464279,177.613998 238.169312,177.420593 239.102203,177.425690 
	C238.759186,177.676010 238.188339,177.727814 237.188354,177.793518 
z"/>
<path fill="#B5BBC9" opacity="1.000000" stroke="none" 
	d="
M303.317200,227.883942 
	C303.465332,227.586609 303.871338,227.146759 304.578735,226.619568 
	C304.445099,226.935287 304.010132,227.338348 303.317200,227.883942 
z"/>
<path fill="#B5BBC9" opacity="1.000000" stroke="none" 
	d="
M280.227783,246.848358 
	C280.402863,246.566864 280.851562,246.160492 281.603516,245.664337 
	C281.438263,245.957535 280.969818,246.340515 280.227783,246.848358 
z"/>
<path fill="#B5BBC9" opacity="1.000000" stroke="none" 
	d="
M285.359314,242.913666 
	C285.530365,242.658493 285.958954,242.289978 286.667969,241.840179 
	C286.504547,242.106049 286.060669,242.453186 285.359314,242.913666 
z"/>
<path fill="#B5BBC9" opacity="1.000000" stroke="none" 
	d="
M274.337372,250.920273 
	C274.519165,250.667694 274.965179,250.308075 275.699524,249.878708 
	C275.525757,250.143738 275.063660,250.478485 274.337372,250.920273 
z"/>
<path fill="#B5BBC9" opacity="1.000000" stroke="none" 
	d="
M288.194275,240.837646 
	C288.354462,240.543564 288.786865,240.115952 289.518677,239.582718 
	C289.367584,239.886093 288.917023,240.295105 288.194275,240.837646 
z"/>
<path fill="#B5BBC9" opacity="1.000000" stroke="none" 
	d="
M331.746552,144.963623 
	C331.425842,144.949265 330.879303,144.762482 330.159973,144.346741 
	C330.498352,144.342239 331.009521,144.566711 331.746552,144.963623 
z"/>
<path fill="#B5BBC9" opacity="1.000000" stroke="none" 
	d="
M195.343674,181.725555 
	C195.674805,181.799606 196.219437,182.096680 196.926697,182.655060 
	C196.578629,182.593781 196.067886,182.271194 195.343674,181.725555 
z"/>
<path fill="#B5BBC9" opacity="1.000000" stroke="none" 
	d="
M265.304718,256.914124 
	C265.492767,256.666107 265.947754,256.319855 266.693054,255.917374 
	C266.512787,256.179382 266.042206,256.497650 265.304718,256.914124 
z"/>
<path fill="#B5BBC9" opacity="1.000000" stroke="none" 
	d="
M197.265656,183.069519 
	C197.583008,183.098358 198.120880,183.305649 198.835938,183.745621 
	C198.504135,183.734863 197.995148,183.491425 197.265656,183.069519 
z"/>
<path fill="#B5BBC9" opacity="1.000000" stroke="none" 
	d="
M294.276123,235.868347 
	C294.434753,235.577438 294.858398,235.149460 295.581329,234.623352 
	C295.434143,234.927231 294.987671,235.329254 294.276123,235.868347 
z"/>
<path fill="#B5BBC9" opacity="1.000000" stroke="none" 
	d="
M313.735535,217.616638 
	C313.829834,217.302979 314.154572,216.806778 314.746765,216.182861 
	C314.664795,216.514786 314.315399,216.974442 313.735535,217.616638 
z"/>
<path fill="#B5BBC9" opacity="1.000000" stroke="none" 
	d="
M259.147308,260.789978 
	C259.350128,260.520111 259.841156,260.141785 260.651001,259.693787 
	C260.458435,259.976624 259.946991,260.329102 259.147308,260.789978 
z"/>
<path fill="#B5BBC9" opacity="1.000000" stroke="none" 
	d="
M194.280457,169.331726 
	C194.198105,169.659943 193.892029,170.202362 193.322067,170.907059 
	C193.391037,170.561523 193.723892,170.053726 194.280457,169.331726 
z"/>
<path fill="#B5BBC9" opacity="1.000000" stroke="none" 
	d="
M248.216797,266.892456 
	C248.415131,266.654388 248.883926,266.334961 249.637634,265.981781 
	C249.444107,266.235687 248.965683,266.523376 248.216797,266.892456 
z"/>
<path fill="#B5BBC9" opacity="1.000000" stroke="none" 
	d="
M246.273499,267.858582 
	C246.474075,267.621429 246.941895,267.308319 247.700562,266.974976 
	C247.507828,267.230743 247.024277,267.506683 246.273499,267.858582 
z"/>
<path fill="#B5BBC9" opacity="1.000000" stroke="none" 
	d="
M324.866180,204.735657 
	C324.937469,204.419144 325.218506,203.898132 325.755310,203.226532 
	C325.699341,203.561020 325.387634,204.046066 324.866180,204.735657 
z"/>
<path fill="#B5BBC9" opacity="1.000000" stroke="none" 
	d="
M338.117065,184.712357 
	C338.123352,184.394058 338.294678,183.847565 338.688721,183.113342 
	C338.701660,183.445129 338.491882,183.964661 338.117065,184.712357 
z"/>
<path fill="#B5BBC9" opacity="1.000000" stroke="none" 
	d="
M337.084900,186.755890 
	C337.101929,186.434402 337.290344,185.883408 337.708557,185.150055 
	C337.710968,185.487274 337.483612,186.006821 337.084900,186.755890 
z"/>
<path fill="#B5BBC9" opacity="1.000000" stroke="none" 
	d="
M333.767456,146.034119 
	C333.423431,146.011673 332.838593,145.801514 332.069031,145.342041 
	C332.431763,145.343964 332.979187,145.595184 333.767456,146.034119 
z"/>
<path fill="#B5BBC9" opacity="1.000000" stroke="none" 
	d="
M328.753723,199.671844 
	C328.810699,199.334152 329.084625,198.783722 329.623199,198.084442 
	C329.582092,198.443436 329.276367,198.951279 328.753723,199.671844 
z"/>
<path fill="#B5BBC9" opacity="1.000000" stroke="none" 
	d="
M192.143341,178.305542 
	C192.399796,178.491547 192.763947,178.945038 193.199921,179.693237 
	C192.931488,179.516296 192.591248,179.044647 192.143341,178.305542 
z"/>
<path fill="#B5BBC9" opacity="1.000000" stroke="none" 
	d="
M340.771301,152.728485 
	C340.508331,152.555908 340.138977,152.120209 339.686707,151.393661 
	C339.957489,151.556976 340.311218,152.011169 340.771301,152.728485 
z"/>
<path fill="#B5BBC9" opacity="1.000000" stroke="none" 
	d="
M286.994415,241.775604 
	C287.002106,241.637527 287.228333,241.350922 287.726837,240.994171 
	C287.737061,241.158386 287.475006,241.392746 286.994415,241.775604 
z"/>
<path fill="#B5BBC9" opacity="1.000000" stroke="none" 
	d="
M304.870728,226.719910 
	C304.873199,226.569214 305.075531,226.188629 305.605530,225.716751 
	C305.645691,225.913635 305.358124,226.201828 304.870728,226.719910 
z"/>
<path fill="#B5BBC9" opacity="1.000000" stroke="none" 
	d="
M289.806458,239.676483 
	C289.829742,239.537262 290.090057,239.204285 290.669769,238.788040 
	C290.673950,238.964096 290.358734,239.223419 289.806458,239.676483 
z"/>
<path fill="#B5BBC9" opacity="1.000000" stroke="none" 
	d="
M283.006592,244.827576 
	C283.012360,244.695465 283.227783,244.404922 283.706421,244.027908 
	C283.718475,244.183990 283.467377,244.426559 283.006592,244.827576 
z"/>
<path fill="#B5BBC9" opacity="1.000000" stroke="none" 
	d="
M281.869385,245.734497 
	C281.891602,245.597931 282.150757,245.286575 282.714691,244.897064 
	C282.715057,245.065842 282.410675,245.312775 281.869385,245.734497 
z"/>
<path fill="#B5BBC9" opacity="1.000000" stroke="none" 
	d="
M276.021912,249.824585 
	C276.030029,249.687469 276.252625,249.406723 276.741699,249.063232 
	C276.750916,249.227325 276.493683,249.454132 276.021912,249.824585 
z"/>
<path fill="#B5BBC9" opacity="1.000000" stroke="none" 
	d="
M260.883911,259.763885 
	C260.904449,259.633667 261.154724,259.357910 261.684937,259.016571 
	C261.681122,259.173462 261.397369,259.395905 260.883911,259.763885 
z"/>
<path fill="#B5BBC9" opacity="1.000000" stroke="none" 
	d="
M341.768280,154.343796 
	C341.641571,154.308090 341.370667,154.023056 341.039917,153.451233 
	C341.194763,153.474457 341.409424,153.784454 341.768280,154.343796 
z"/>
<path fill="#B5BBC9" opacity="1.000000" stroke="none" 
	d="
M339.724609,151.120880 
	C339.586243,151.105469 339.259033,150.861099 338.834442,150.315399 
	C339.003296,150.306686 339.269562,150.599319 339.724609,151.120880 
z"/>
<path fill="#B5BBC9" opacity="1.000000" stroke="none" 
	d="
M334.809326,146.812836 
	C334.673553,146.839493 334.348328,146.694580 333.901337,146.301941 
	C334.059692,146.249893 334.339783,146.445572 334.809326,146.812836 
z"/>
<path fill="#B5BBC9" opacity="1.000000" stroke="none" 
	d="
M310.889679,220.747498 
	C310.891907,220.598038 311.100372,220.224243 311.626404,219.747925 
	C311.661255,219.938004 311.378571,220.230591 310.889679,220.747498 
z"/>
<path fill="#B5BBC9" opacity="1.000000" stroke="none" 
	d="
M193.218048,179.965057 
	C193.358917,179.966095 193.692764,180.182175 194.143555,180.681519 
	C193.977356,180.703217 193.694183,180.441666 193.218048,179.965057 
z"/>
<path fill="#B5BBC9" opacity="1.000000" stroke="none" 
	d="
M194.229156,180.946075 
	C194.378723,180.932816 194.761276,181.110550 195.278214,181.584015 
	C195.095795,181.632187 194.778976,181.384628 194.229156,180.946075 
z"/>
<path fill="#B5BBC9" opacity="1.000000" stroke="none" 
	d="
M243.172852,194.140900 
	C243.345779,194.062042 243.607620,194.251602 243.924515,194.737274 
	C243.771133,194.776566 243.531860,194.568527 243.172852,194.140900 
z"/>
<path fill="#B5BBC9" opacity="1.000000" stroke="none" 
	d="
M328.041199,200.642319 
	C328.021759,200.499023 328.187195,200.162369 328.621277,199.710922 
	C328.668610,199.880402 328.447296,200.164673 328.041199,200.642319 
z"/>
<path fill="#B5BBC9" opacity="1.000000" stroke="none" 
	d="
M326.233276,202.845825 
	C326.079193,202.649033 326.230011,202.364517 326.739014,202.046295 
	C326.807983,202.213287 326.621674,202.461792 326.233276,202.845825 
z"/>
<path fill="#B5BBC9" opacity="1.000000" stroke="none" 
	d="
M324.102783,205.687164 
	C324.087036,205.550217 324.255432,205.229980 324.681000,204.796310 
	C324.721100,204.956543 324.503998,205.230209 324.102783,205.687164 
z"/>
<path fill="#B5BBC9" opacity="1.000000" stroke="none" 
	d="
M192.898865,171.266174 
	C192.920822,171.408676 192.758682,171.798477 192.337036,172.382721 
	C192.289932,172.222626 192.502350,171.868057 192.898865,171.266174 
z"/>
<path fill="#B5BBC9" opacity="1.000000" stroke="none" 
	d="
M318.107910,212.810089 
	C318.103485,212.678497 318.299133,212.384598 318.745056,211.984421 
	C318.766235,212.134674 318.537109,212.391220 318.107910,212.810089 
z"/>
<path fill="#B5BBC9" opacity="1.000000" stroke="none" 
	d="
M316.184570,214.849396 
	C316.172211,214.720306 316.346619,214.437668 316.756042,214.055389 
	C316.815460,214.228394 316.608887,214.475098 316.184570,214.849396 
z"/>
<path fill="#B5BBC9" opacity="1.000000" stroke="none" 
	d="
M312.859222,218.732727 
	C312.858826,218.588989 313.052826,218.208679 313.554688,217.697968 
	C313.592926,217.877106 313.323273,218.186630 312.859222,218.732727 
z"/>
<path fill="#B5BBC9" opacity="1.000000" stroke="none" 
	d="
M311.873840,219.735046 
	C311.878143,219.588013 312.089844,219.215378 312.618835,218.734436 
	C312.651154,218.920578 312.366180,219.214996 311.873840,219.735046 
z"/>
<path fill="#B5BBC9" opacity="1.000000" stroke="none" 
	d="
M290.915710,238.760925 
	C290.927246,238.622620 291.166077,238.307983 291.694275,237.896362 
	C291.703461,238.061127 291.423248,238.322861 290.915710,238.760925 
z"/>
<path fill="#B5BBC9" opacity="1.000000" stroke="none" 
	d="
M309.878754,221.744537 
	C309.884949,221.595734 310.105957,221.230148 310.644043,220.767288 
	C310.671936,220.955933 310.382751,221.241837 309.878754,221.744537 
z"/>
<path fill="#B5BBC9" opacity="1.000000" stroke="none" 
	d="
M308.878845,222.744354 
	C308.884308,222.596741 309.104858,222.231659 309.639648,221.761078 
	C309.667236,221.946030 309.380585,222.236465 308.878845,222.744354 
z"/>
<path fill="#B5BBC9" opacity="1.000000" stroke="none" 
	d="
M307.869629,223.735565 
	C307.877472,223.588898 308.102081,223.226273 308.643066,222.762283 
	C308.668396,222.947144 308.377380,223.233368 307.869629,223.735565 
z"/>
<path fill="#B5BBC9" opacity="1.000000" stroke="none" 
	d="
M306.923187,224.748871 
	C306.922211,224.602448 307.116791,224.228638 307.625458,223.746002 
	C307.665955,223.931961 307.392334,224.226715 306.923187,224.748871 
z"/>
<path fill="#B5BBC9" opacity="1.000000" stroke="none" 
	d="
M305.857483,225.722107 
	C305.867188,225.571350 306.091370,225.206894 306.643555,224.771698 
	C306.671692,224.970108 306.371826,225.239258 305.857483,225.722107 
z"/>
<path fill="#B5BBC9" opacity="1.000000" stroke="none" 
	d="
M239.275879,177.868500 
	C239.425583,177.875168 239.764572,178.108871 240.182770,178.657349 
	C239.996368,178.679916 239.730743,178.387711 239.275879,177.868500 
z"/>
<path fill="#B5BBC9" opacity="1.000000" stroke="none" 
	d="
M302.200989,228.869629 
	C302.089508,228.669174 302.271210,228.406082 302.789490,228.137421 
	C302.839691,228.311737 302.629059,228.536789 302.200989,228.869629 
z"/>
<path fill="#B5BBC9" opacity="1.000000" stroke="none" 
	d="
M300.105286,230.818344 
	C300.103027,230.687958 300.301453,230.411453 300.743469,230.043335 
	C300.789459,230.219650 300.562408,230.459808 300.105286,230.818344 
z"/>
<path fill="#B5BBC9" opacity="1.000000" stroke="none" 
	d="
M295.844727,234.721298 
	C295.859375,234.581772 296.099609,234.240158 296.650024,233.795258 
	C296.663574,233.967712 296.366943,234.243469 295.844727,234.721298 
z"/>
<path fill="#B5BBC9" opacity="1.000000" stroke="none" 
	d="
M293.117493,236.837067 
	C293.116791,236.705963 293.315948,236.435745 293.759552,236.088242 
	C293.802155,236.266968 293.573242,236.495956 293.117493,236.837067 
z"/>
<path fill="#B5BBC9" opacity="1.000000" stroke="none" 
	d="
M292.002686,237.813477 
	C292.009521,237.680618 292.229218,237.389374 292.713989,237.010513 
	C292.724518,237.166962 292.470032,237.411026 292.002686,237.813477 
z"/>
</svg>