<svg version="1.1" id="Layer_1" xmlns="http://www.w3.org/2000/svg" xmlns:xlink="http://www.w3.org/1999/xlink" x="0px" y="0px"
	 width="100%" viewBox="0 0 500 500" enable-background="new 0 0 500 500" xml:space="preserve">
<path fill="#2301FE" opacity="1.000000" stroke="none" 
	d="
M286.000000,501.000000 
	C190.666687,501.000000 95.833382,501.000000 1.000051,501.000000 
	C1.000034,334.333405 1.000034,167.666794 1.000017,1.000140 
	C167.666565,1.000094 334.333130,1.000094 500.999756,1.000047 
	C500.999847,167.666519 500.999847,334.333038 500.999939,500.999786 
	C429.500000,501.000000 358.000000,501.000000 286.000000,501.000000 
M344.172302,96.423630 
	C313.643372,93.916451 283.621521,97.616692 253.978668,104.497101 
	C225.046616,111.212517 196.836914,120.222076 171.493881,136.217926 
	C165.134552,140.231750 159.168381,145.448380 154.377625,151.234955 
	C146.707230,160.499725 148.591568,170.206085 158.724258,176.764740 
	C163.840820,180.076584 169.411057,183.150879 175.210388,184.853653 
	C189.861420,189.155411 204.700287,192.869186 219.577316,196.331207 
	C229.459747,198.630951 229.603714,198.255814 229.464966,208.477325 
	C229.042023,239.631683 228.506012,270.784760 228.186081,301.940063 
	C228.134781,306.934174 226.259293,310.121643 221.672089,311.977478 
	C210.272552,316.589447 199.128616,321.949341 187.486618,325.819305 
	C168.729599,332.054413 149.637543,337.277557 130.737183,343.091217 
	C128.610138,343.745483 126.806808,345.452179 124.853371,346.670807 
	C125.120110,347.524017 125.386856,348.377228 125.653595,349.230438 
	C128.090546,349.230438 130.629288,349.683350 132.949081,349.162018 
	C163.994766,342.185059 194.374527,333.088562 223.558273,320.255493 
	C224.803299,319.708038 226.151642,319.395538 227.896317,318.829315 
	C227.896317,321.752167 227.915085,323.910217 227.893524,326.067871 
	C227.532166,362.222046 227.219879,398.376984 226.719788,434.529236 
	C226.667694,438.294495 227.530640,440.987885 231.429276,441.226440 
	C235.369370,441.467529 236.186569,438.312286 236.502335,435.135803 
	C236.683502,433.313263 236.860092,431.485199 236.914841,429.655884 
	C237.966446,394.517609 239.188736,359.382538 239.900665,324.237244 
	C240.073593,315.700134 243.102493,310.666016 250.937607,306.803772 
	C299.849579,282.692871 342.055695,249.947769 376.231354,207.253311 
	C388.782501,191.573639 399.636139,174.796097 404.491852,154.975693 
	C410.374420,130.964020 402.625946,115.490807 380.288025,105.167046 
	C369.091278,99.992332 357.209747,97.809349 344.172302,96.423630 
z"/>
<path fill="#F9F8FF" opacity="1.000000" stroke="none" 
	d="
M344.622986,96.502533 
	C357.209747,97.809349 369.091278,99.992332 380.288025,105.167046 
	C402.625946,115.490807 410.374420,130.964020 404.491852,154.975693 
	C399.636139,174.796097 388.782501,191.573639 376.231354,207.253311 
	C342.055695,249.947769 299.849579,282.692871 250.937607,306.803772 
	C243.102493,310.666016 240.073593,315.700134 239.900665,324.237244 
	C239.188736,359.382538 237.966446,394.517609 236.914841,429.655884 
	C236.860092,431.485199 236.683502,433.313263 236.502335,435.135803 
	C236.186569,438.312286 235.369370,441.467529 231.429276,441.226440 
	C227.530640,440.987885 226.667694,438.294495 226.719788,434.529236 
	C227.219879,398.376984 227.532166,362.222046 227.893524,326.067871 
	C227.915085,323.910217 227.896317,321.752167 227.896317,318.829315 
	C226.151642,319.395538 224.803299,319.708038 223.558273,320.255493 
	C194.374527,333.088562 163.994766,342.185059 132.949081,349.162018 
	C130.629288,349.683350 128.090546,349.230438 125.653595,349.230438 
	C125.386856,348.377228 125.120110,347.524017 124.853371,346.670807 
	C126.806808,345.452179 128.610138,343.745483 130.737183,343.091217 
	C149.637543,337.277557 168.729599,332.054413 187.486618,325.819305 
	C199.128616,321.949341 210.272552,316.589447 221.672089,311.977478 
	C226.259293,310.121643 228.134781,306.934174 228.186081,301.940063 
	C228.506012,270.784760 229.042023,239.631683 229.464966,208.477325 
	C229.603714,198.255814 229.459747,198.630951 219.577316,196.331207 
	C204.700287,192.869186 189.861420,189.155411 175.210388,184.853653 
	C169.411057,183.150879 163.840820,180.076584 158.724258,176.764740 
	C148.591568,170.206085 146.707230,160.499725 154.377625,151.234955 
	C159.168381,145.448380 165.134552,140.231750 171.493881,136.217926 
	C196.836914,120.222076 225.046616,111.212517 253.978668,104.497101 
	C283.621521,97.616692 313.643372,93.916451 344.622986,96.502533 
M251.903824,296.456451 
	C299.640656,269.594696 341.674805,236.148239 373.463287,190.931732 
	C381.944916,178.867294 388.804016,165.991180 391.550293,151.293274 
	C394.983490,132.919144 388.828796,120.672066 371.918365,112.668877 
	C367.741638,110.692154 363.316223,108.720428 358.812073,108.057144 
	C346.980774,106.314857 335.061005,104.388748 323.144562,104.153389 
	C284.404572,103.388245 247.123138,111.372162 210.824982,124.504059 
	C196.376328,129.731262 182.292404,135.719467 170.076935,145.215240 
	C155.697891,156.392883 156.944565,166.094391 173.402664,173.659073 
	C189.261887,180.948486 206.170441,184.535980 223.162445,187.849411 
	C226.920731,188.582275 228.486969,187.141830 228.093979,183.340302 
	C227.597778,178.540024 227.156540,173.732956 226.779846,168.921890 
	C226.556213,166.065643 227.073959,163.434128 230.424622,162.744812 
	C234.218567,161.964310 234.973694,164.970078 235.445084,167.528015 
	C236.469376,173.086182 237.355118,178.691391 237.859589,184.316635 
	C238.223663,188.376312 240.157166,190.321747 244.028397,190.772537 
	C247.334625,191.157516 250.655518,191.493118 253.925980,192.090912 
	C259.152771,193.046265 264.388245,194.031433 269.515350,195.397141 
	C270.709320,195.715195 272.366333,197.741760 272.219910,198.751572 
	C272.046173,199.949432 270.311890,201.275604 268.958801,201.845154 
	C267.680420,202.383286 266.001465,202.175720 264.529999,202.013000 
	C258.575256,201.354630 252.634766,200.568588 246.684921,199.864365 
	C239.367249,198.998215 239.312057,199.026031 239.307709,206.647308 
	C239.290573,236.636841 239.292755,266.626373 239.320343,296.615875 
	C239.321899,298.308624 239.614609,300.001099 239.861176,302.655853 
	C244.269897,300.409546 247.770905,298.625732 251.903824,296.456451 
z"/>
<path fill="#2402FE" opacity="1.000000" stroke="none" 
	d="
M251.587860,296.649170 
	C247.770905,298.625732 244.269897,300.409546 239.861176,302.655853 
	C239.614609,300.001099 239.321899,298.308624 239.320343,296.615875 
	C239.292755,266.626373 239.290573,236.636841 239.307709,206.647308 
	C239.312057,199.026031 239.367249,198.998215 246.684921,199.864365 
	C252.634766,200.568588 258.575256,201.354630 264.529999,202.013000 
	C266.001465,202.175720 267.680420,202.383286 268.958801,201.845154 
	C270.311890,201.275604 272.046173,199.949432 272.219910,198.751572 
	C272.366333,197.741760 270.709320,195.715195 269.515350,195.397141 
	C264.388245,194.031433 259.152771,193.046265 253.925980,192.090912 
	C250.655518,191.493118 247.334625,191.157516 244.028397,190.772537 
	C240.157166,190.321747 238.223663,188.376312 237.859589,184.316635 
	C237.355118,178.691391 236.469376,173.086182 235.445084,167.528015 
	C234.973694,164.970078 234.218567,161.964310 230.424622,162.744812 
	C227.073959,163.434128 226.556213,166.065643 226.779846,168.921890 
	C227.156540,173.732956 227.597778,178.540024 228.093979,183.340302 
	C228.486969,187.141830 226.920731,188.582275 223.162445,187.849411 
	C206.170441,184.535980 189.261887,180.948486 173.402664,173.659073 
	C156.944565,166.094391 155.697891,156.392883 170.076935,145.215240 
	C182.292404,135.719467 196.376328,129.731262 210.824982,124.504059 
	C247.123138,111.372162 284.404572,103.388245 323.144562,104.153389 
	C335.061005,104.388748 346.980774,106.314857 358.812073,108.057144 
	C363.316223,108.720428 367.741638,110.692154 371.918365,112.668877 
	C388.828796,120.672066 394.983490,132.919144 391.550293,151.293274 
	C388.804016,165.991180 381.944916,178.867294 373.463287,190.931732 
	C341.674805,236.148239 299.640656,269.594696 251.587860,296.649170 
z"/>
</svg>