<svg version="1.1" id="Layer_1" xmlns="http://www.w3.org/2000/svg" xmlns:xlink="http://www.w3.org/1999/xlink" x="0px" y="0px"
	 width="100%" viewBox="0 0 500 500" enable-background="new 0 0 500 500" xml:space="preserve">
<path fill="#010080" opacity="1.000000" stroke="none" 
	d="
M324.000000,501.000000 
	C216.000031,501.000000 108.500053,501.000000 1.000058,501.000000 
	C1.000038,334.333405 1.000038,167.666794 1.000019,1.000147 
	C167.666565,1.000098 334.333130,1.000098 500.999756,1.000049 
	C500.999847,167.666519 500.999847,334.333038 500.999939,500.999786 
	C442.166656,501.000000 383.333344,501.000000 324.000000,501.000000 
M265.127167,136.776733 
	C241.954269,141.044250 219.461258,147.381210 199.254044,159.925674 
	C194.700470,162.752518 190.514633,166.643341 187.189560,170.857147 
	C183.103256,176.035675 184.272964,181.864365 189.718277,185.623413 
	C193.496750,188.231812 197.715973,190.579071 202.084656,191.878235 
	C211.773285,194.759384 221.614166,197.239746 231.528046,199.200592 
	C235.847366,200.054916 237.214783,201.600525 237.112259,205.904343 
	C236.632217,226.057175 236.280334,246.216339 236.238922,266.373962 
	C236.228851,271.277039 234.687073,274.238159 230.066727,275.796753 
	C211.371567,282.103302 192.696487,288.469543 174.028610,294.856476 
	C172.195221,295.483734 170.462006,296.403748 168.682297,297.187897 
	C168.830582,297.740875 168.978882,298.293854 169.127167,298.846832 
	C171.419083,298.846832 173.887177,299.410858 175.975327,298.758575 
	C194.497635,292.972626 212.953186,286.972900 231.426361,281.029938 
	C232.790039,280.591248 234.137589,280.102478 235.978271,279.470154 
	C235.978271,281.872253 235.996643,283.670044 235.975464,285.467377 
	C235.714462,307.625458 235.413467,329.783112 235.224243,351.941803 
	C235.199661,354.822174 233.692795,359.332214 238.499207,359.284332 
	C242.651031,359.243042 241.724838,354.850128 241.821777,352.090881 
	C242.617172,329.454041 243.534912,306.815063 243.791992,284.169647 
	C243.869720,277.322693 246.390686,273.828125 252.388687,270.822784 
	C284.827759,254.568985 312.791260,232.627701 335.019684,203.746704 
	C342.360992,194.208267 348.615875,184.010101 351.493408,172.133347 
	C355.269989,156.545822 350.356873,146.385895 335.768372,139.798523 
	C332.163910,138.170929 328.352020,136.834961 324.501099,135.949188 
	C304.960632,131.454681 285.452881,133.425949 265.127167,136.776733 
z"/>
<path fill="#F3F4FB" opacity="1.000000" stroke="none" 
	d="
M265.551758,136.693298 
	C285.452881,133.425949 304.960632,131.454681 324.501099,135.949188 
	C328.352020,136.834961 332.163910,138.170929 335.768372,139.798523 
	C350.356873,146.385895 355.269989,156.545822 351.493408,172.133347 
	C348.615875,184.010101 342.360992,194.208267 335.019684,203.746704 
	C312.791260,232.627701 284.827759,254.568985 252.388687,270.822784 
	C246.390686,273.828125 243.869720,277.322693 243.791992,284.169647 
	C243.534912,306.815063 242.617172,329.454041 241.821777,352.090881 
	C241.724838,354.850128 242.651031,359.243042 238.499207,359.284332 
	C233.692795,359.332214 235.199661,354.822174 235.224243,351.941803 
	C235.413467,329.783112 235.714462,307.625458 235.975464,285.467377 
	C235.996643,283.670044 235.978271,281.872253 235.978271,279.470154 
	C234.137589,280.102478 232.790039,280.591248 231.426361,281.029938 
	C212.953186,286.972900 194.497635,292.972626 175.975327,298.758575 
	C173.887177,299.410858 171.419083,298.846832 169.127167,298.846832 
	C168.978882,298.293854 168.830582,297.740875 168.682297,297.187897 
	C170.462006,296.403748 172.195221,295.483734 174.028610,294.856476 
	C192.696487,288.469543 211.371567,282.103302 230.066727,275.796753 
	C234.687073,274.238159 236.228851,271.277039 236.238922,266.373962 
	C236.280334,246.216339 236.632217,226.057175 237.112259,205.904343 
	C237.214783,201.600525 235.847366,200.054916 231.528046,199.200592 
	C221.614166,197.239746 211.773285,194.759384 202.084656,191.878235 
	C197.715973,190.579071 193.496750,188.231812 189.718277,185.623413 
	C184.272964,181.864365 183.103256,176.035675 187.189560,170.857147 
	C190.514633,166.643341 194.700470,162.752518 199.254044,159.925674 
	C219.461258,147.381210 241.954269,141.044250 265.551758,136.693298 
M295.518860,234.612518 
	C295.518860,234.612518 295.603790,234.390030 296.101868,234.210480 
	C296.428253,233.819443 296.754639,233.428421 297.516815,232.871429 
	C297.796356,232.701096 297.981934,232.458786 298.608673,232.005905 
	C298.805115,231.706497 299.001556,231.407089 299.791809,230.820007 
	C302.115204,228.677719 304.523590,226.619766 306.748108,224.379318 
	C320.384094,210.645813 333.453400,196.432159 340.759155,178.102005 
	C348.270996,159.254761 341.367096,146.189148 321.685211,141.319122 
	C320.881042,141.120163 320.050873,140.942596 319.227722,140.916733 
	C308.194336,140.569763 297.160065,140.251617 285.910278,139.424088 
	C285.593689,139.372208 285.277069,139.320312 284.180847,139.227570 
	C283.158783,139.393036 282.136719,139.558517 280.296753,139.547638 
	C275.853241,140.103455 271.409698,140.659271 266.321442,141.224350 
	C265.921936,141.371048 265.522430,141.517746 264.340118,141.582123 
	C257.555847,143.040619 250.536499,143.826950 244.037018,146.099854 
	C231.171173,150.599106 218.592560,155.919754 205.967758,160.998093 
	C205.967758,160.998093 205.921432,160.886124 205.432556,160.891785 
	C205.071945,160.942062 204.829163,161.138199 204.581223,161.514053 
	C204.581223,161.514053 204.535751,161.633240 203.919647,161.763657 
	C202.920898,162.484268 201.922150,163.204880 200.990204,164.003189 
	C200.990204,164.003189 200.935226,163.918060 200.292740,164.018814 
	C199.178787,165.006058 198.064835,165.993286 196.515289,167.172440 
	C196.244034,167.363083 196.063248,167.617920 195.356491,168.154831 
	C194.537613,169.411041 193.718719,170.667252 193.004578,171.977371 
	C193.004578,171.977371 192.909973,171.905746 192.350693,172.267593 
	C192.635544,174.624954 192.920410,176.982300 193.318710,179.669327 
	C193.318710,179.669327 193.631088,179.824127 193.877731,180.336731 
	C194.954178,181.097931 196.030609,181.859131 197.531082,182.956543 
	C197.868500,183.083130 198.205902,183.209702 198.944824,183.869659 
	C199.970200,184.245346 200.995590,184.621033 202.287033,185.195328 
	C202.287033,185.195328 202.615677,185.242371 203.080002,185.808960 
	C206.925354,187.007538 210.770691,188.206116 214.671295,189.465820 
	C214.671295,189.465820 214.752838,189.477646 215.330475,189.918213 
	C222.002274,191.412476 228.674088,192.906723 236.375687,194.631622 
	C236.016479,189.823120 235.832321,186.107956 235.433090,182.416061 
	C235.123703,179.555252 235.714798,177.495331 239.185913,177.315964 
	C239.185913,177.315964 239.483658,177.384369 239.806961,178.103989 
	C240.296555,179.835388 240.863785,181.549271 241.259552,183.301849 
	C242.083099,186.948822 242.815811,190.616302 243.619278,194.358749 
	C243.619278,194.358749 243.703537,194.389999 244.141037,194.977844 
	C247.132950,195.417496 250.124863,195.857162 253.684174,196.605499 
	C254.108536,196.661438 254.532913,196.717377 255.685837,197.043716 
	C258.165344,197.500671 260.644836,197.957611 263.596436,198.788818 
	C263.792542,198.831909 263.988678,198.875000 264.588196,199.409164 
	C264.671570,200.238434 264.754974,201.067688 264.957672,201.959930 
	C264.957672,201.959930 264.866760,201.860229 264.125366,202.135742 
	C258.715179,201.949554 253.304977,201.763367 247.327515,201.313736 
	C246.913651,201.287796 246.499802,201.261856 245.298538,201.021622 
	C244.617172,203.012177 243.359558,204.998245 243.343948,206.994003 
	C243.195541,225.976196 243.250259,244.960037 243.275208,263.943359 
	C243.277054,265.341949 243.501129,266.740265 243.690231,268.930054 
	C245.953598,267.699615 247.492783,266.862854 249.006622,265.996460 
	C249.006622,265.996460 249.017456,266.032043 249.601334,266.024780 
	C249.873932,265.771393 250.146530,265.518036 250.732452,265.194397 
	C250.732452,265.194397 250.968948,264.977203 251.605453,264.937225 
	C252.443832,264.330994 253.282211,263.724762 254.024902,262.995636 
	C254.024902,262.995636 254.104691,263.128357 254.727661,263.089691 
	C255.574829,262.527130 256.421997,261.964539 257.316193,261.373016 
	C257.316193,261.373016 257.347717,261.327698 257.986450,261.233917 
	C259.024323,260.520996 260.062195,259.808075 261.029144,259.003265 
	C261.029144,259.003265 261.073181,259.110565 261.711273,259.034973 
	C262.921844,258.207977 264.132385,257.380951 265.472290,256.517639 
	C265.472290,256.517639 265.522644,256.393127 266.124573,256.229950 
	C267.111694,255.512909 268.098816,254.795898 269.019623,253.995850 
	C269.019623,253.995850 269.067657,254.089798 269.627472,254.045792 
	C270.202362,253.582733 270.777252,253.119675 271.570923,252.615936 
	C271.570923,252.615936 271.656433,252.410461 272.235413,252.234955 
	C273.170990,251.501480 274.106567,250.768005 275.005920,249.996567 
	C275.005920,249.996567 275.026031,250.044189 275.640625,249.951614 
	C276.422760,249.295868 277.204895,248.640121 278.452332,247.869644 
	C278.757751,247.728577 278.975647,247.502991 279.725006,247.079544 
	C280.494324,246.398239 281.263641,245.716919 282.000000,245.000000 
	C282.000000,245.000000 282.032501,245.035919 282.615723,244.932816 
	C283.162933,244.388245 283.710114,243.843689 284.224091,243.210846 
	C284.224091,243.210846 284.308411,243.253113 284.722717,243.242218 
	C285.017944,243.157120 285.200867,242.965042 285.508881,242.612396 
	C285.508881,242.612396 285.601654,242.387360 286.112396,242.225281 
	C286.464233,241.849777 286.816101,241.474258 287.598633,240.951889 
	C287.598633,240.951889 287.918671,240.628479 288.418976,240.409805 
	C288.934570,239.931351 289.450134,239.452881 290.421692,238.808838 
	C290.715363,238.640015 290.919891,238.396378 291.639282,237.920120 
	C292.540405,237.079697 293.441498,236.239258 294.419983,235.367081 
	C294.419983,235.367081 294.456909,235.292068 294.844513,235.265228 
	C295.108612,235.150620 295.255890,234.950180 295.518860,234.612518 
z"/>
<path fill="#03027F" opacity="1.000000" stroke="none" 
	d="
M246.085938,201.235916 
	C246.499802,201.261856 246.913651,201.287796 247.819183,201.726990 
	C252.509216,202.696106 256.696228,203.437927 260.912842,203.695297 
	C262.188721,203.773163 263.546509,202.509445 264.866760,201.860229 
	C264.866760,201.860229 264.957672,201.959930 265.129028,201.743286 
	C264.928528,200.657120 264.556702,199.787598 264.184845,198.918091 
	C263.988678,198.875000 263.792542,198.831909 263.216339,198.303101 
	C260.209930,197.469360 257.583588,197.121323 254.957275,196.773315 
	C254.532913,196.717377 254.108536,196.661438 253.187164,196.196472 
	C249.694611,195.321625 246.699066,194.855804 243.703537,194.389999 
	C243.703537,194.389999 243.619278,194.358749 243.625580,193.858490 
	C242.249130,188.033615 240.866394,182.709000 239.483658,177.384369 
	C239.483658,177.384369 239.185913,177.315964 238.827682,176.998566 
	C235.360703,176.059280 234.219955,177.602173 234.266571,180.481277 
	C234.303833,182.782074 234.218460,185.089157 234.358185,187.383057 
	C234.644485,192.083435 233.378754,192.823486 228.733307,191.695969 
	C224.162918,190.586700 219.420029,190.188095 214.752838,189.477661 
	C214.752838,189.477646 214.671295,189.465820 214.495758,189.121399 
	C210.418701,187.598785 206.517197,186.420578 202.615677,185.242371 
	C202.615677,185.242371 202.287033,185.195328 201.931030,184.838333 
	C200.564453,184.099655 199.553879,183.717972 198.543320,183.336288 
	C198.205902,183.209702 197.868500,183.083130 197.272903,182.432465 
	C195.886841,181.213623 194.758972,180.518875 193.631088,179.824127 
	C193.631088,179.824127 193.318710,179.669327 193.339294,179.105103 
	C193.209900,176.329178 193.059937,174.117462 192.909973,171.905746 
	C192.909973,171.905746 193.004578,171.977371 193.281555,171.853027 
	C194.363327,170.464767 195.168121,169.200851 195.972916,167.936935 
	C196.063248,167.617920 196.244034,167.363083 197.084381,167.052505 
	C198.747406,165.927734 199.841309,164.922897 200.935226,163.918060 
	C200.935226,163.918060 200.990204,164.003189 201.302261,163.967133 
	C202.588120,163.165115 203.561935,162.399170 204.535751,161.633240 
	C204.535751,161.633240 204.581223,161.514053 204.887024,161.504761 
	C205.536301,161.412689 205.779160,161.209579 205.921432,160.886124 
	C205.921432,160.886124 205.967758,160.998093 206.311462,160.950134 
	C210.756668,159.137695 214.788528,157.184128 218.972397,155.643219 
	C232.954849,150.493576 246.841354,144.974380 261.908020,143.630646 
	C263.029205,143.530655 264.053558,142.345245 265.122925,141.664429 
	C265.522430,141.517746 265.921936,141.371048 266.997925,141.368088 
	C272.154480,140.915878 276.634583,140.319946 281.114655,139.723999 
	C282.136719,139.558517 283.158783,139.393036 284.718384,139.430389 
	C285.504639,139.853485 285.794678,139.951187 286.126007,139.926315 
	C297.160065,140.251617 308.194336,140.569763 319.227722,140.916733 
	C320.050873,140.942596 320.881042,141.120163 321.685211,141.319122 
	C341.367096,146.189148 348.270996,159.254761 340.759155,178.102005 
	C333.453400,196.432159 320.384094,210.645813 306.748108,224.379318 
	C304.523590,226.619766 302.115204,228.677719 299.241089,231.053223 
	C298.484741,231.572449 298.279144,231.858459 298.073547,232.144501 
	C297.981934,232.458786 297.796356,232.701096 297.016418,232.996063 
	C296.211945,233.543823 295.907867,233.966934 295.603790,234.390030 
	C295.603790,234.390030 295.518860,234.612518 295.192505,234.617859 
	C294.554108,234.738602 294.417694,234.961563 294.456909,235.292068 
	C294.456909,235.292068 294.419983,235.367081 294.056335,235.437241 
	C292.806885,236.364243 291.921082,237.221085 291.035309,238.077942 
	C290.919891,238.396378 290.715363,238.640015 289.907440,238.915817 
	C288.901672,239.558014 288.410156,240.093246 287.918671,240.628479 
	C287.918671,240.628479 287.598633,240.951889 287.098724,241.057953 
	C286.266418,241.571793 285.934052,241.979568 285.601654,242.387360 
	C285.601654,242.387360 285.508881,242.612396 285.173645,242.618851 
	C284.517853,242.713058 284.341187,242.922318 284.308411,243.253113 
	C284.308411,243.253113 284.224091,243.210846 283.929626,243.283752 
	C283.100952,243.916428 282.566711,244.476166 282.032501,245.035919 
	C282.032501,245.035919 282.000000,245.000000 281.678436,245.028076 
	C280.606567,245.768402 279.856262,246.480621 279.105988,247.192841 
	C278.975647,247.502991 278.757751,247.728577 277.902649,247.943726 
	C276.577301,248.693283 275.801666,249.368729 275.026031,250.044189 
	C275.026031,250.044189 275.005920,249.996567 274.695068,250.036285 
	C273.474976,250.854141 272.565704,251.632309 271.656433,252.410461 
	C271.656433,252.410461 271.570923,252.615936 271.154694,252.589539 
	C270.181549,253.072021 269.624603,253.580917 269.067657,254.089813 
	C269.067657,254.089798 269.019623,253.995850 268.719635,254.053772 
	C267.453979,254.872177 266.488312,255.632645 265.522644,256.393127 
	C265.522644,256.393127 265.472290,256.517639 265.075775,256.497986 
	C263.477234,257.355743 262.275208,258.233154 261.073181,259.110565 
	C261.073181,259.110565 261.029144,259.003265 260.730347,259.063599 
	C259.403625,259.858521 258.375671,260.593109 257.347717,261.327698 
	C257.347717,261.327698 257.316193,261.373016 256.947327,261.361053 
	C255.753891,261.942169 254.929291,262.535248 254.104691,263.128357 
	C254.104691,263.128357 254.024902,262.995636 253.734985,263.050842 
	C252.619690,263.729797 251.794327,264.353485 250.968948,264.977203 
	C250.968948,264.977203 250.732452,265.194397 250.297638,265.256378 
	C249.581039,265.556244 249.299255,265.794159 249.017456,266.032043 
	C249.017456,266.032043 249.006622,265.996460 248.586411,265.996185 
	C243.926117,266.406128 244.781326,263.246765 244.774673,260.937531 
	C244.723373,243.120575 244.705124,225.303146 244.809464,207.486649 
	C244.821686,205.400650 245.640869,203.319382 246.085938,201.235916 
z"/>
<path fill="#3B3891" opacity="1.000000" stroke="none" 
	d="
M245.692245,201.128769 
	C245.640869,203.319382 244.821686,205.400650 244.809464,207.486649 
	C244.705124,225.303146 244.723373,243.120575 244.774673,260.937531 
	C244.781326,263.246765 243.926117,266.406128 248.599091,266.010986 
	C247.492783,266.862854 245.953598,267.699615 243.690231,268.930054 
	C243.501129,266.740265 243.277054,265.341949 243.275208,263.943359 
	C243.250259,244.960037 243.195541,225.976196 243.343948,206.994003 
	C243.359558,204.998245 244.617172,203.012177 245.692245,201.128769 
z"/>
<path fill="#3B3891" opacity="1.000000" stroke="none" 
	d="
M264.731506,141.623276 
	C264.053558,142.345245 263.029205,143.530655 261.908020,143.630646 
	C246.841354,144.974380 232.954849,150.493576 218.972397,155.643219 
	C214.788528,157.184128 210.756668,159.137695 206.275177,160.901520 
	C218.592560,155.919754 231.171173,150.599106 244.037018,146.099854 
	C250.536499,143.826950 257.555847,143.040619 264.731506,141.623276 
z"/>
<path fill="#3B3891" opacity="1.000000" stroke="none" 
	d="
M215.041656,189.697937 
	C219.420029,190.188095 224.162918,190.586700 228.733307,191.695969 
	C233.378754,192.823486 234.644485,192.083435 234.358185,187.383057 
	C234.218460,185.089157 234.303833,182.782074 234.266571,180.481277 
	C234.219955,177.602173 235.360703,176.059280 238.719101,176.891144 
	C235.714798,177.495331 235.123703,179.555252 235.433090,182.416061 
	C235.832321,186.107956 236.016479,189.823120 236.375687,194.631622 
	C228.674088,192.906723 222.002274,191.412476 215.041656,189.697937 
z"/>
<path fill="#3B3891" opacity="1.000000" stroke="none" 
	d="
M239.645309,177.744171 
	C240.866394,182.709000 242.249130,188.033615 243.608856,193.816803 
	C242.815811,190.616302 242.083099,186.948822 241.259552,183.301849 
	C240.863785,181.549271 240.296555,179.835388 239.645309,177.744171 
z"/>
<path fill="#3B3891" opacity="1.000000" stroke="none" 
	d="
M264.496063,201.997986 
	C263.546509,202.509445 262.188721,203.773163 260.912842,203.695297 
	C256.696228,203.437927 252.509216,202.696106 248.102814,201.858704 
	C253.304977,201.763367 258.715179,201.949554 264.496063,201.997986 
z"/>
<path fill="#3B3891" opacity="1.000000" stroke="none" 
	d="
M280.705688,139.635818 
	C276.634583,140.319946 272.154480,140.915878 267.320312,141.363464 
	C271.409698,140.659271 275.853241,140.103455 280.705688,139.635818 
z"/>
<path fill="#3B3891" opacity="1.000000" stroke="none" 
	d="
M202.847839,185.525665 
	C206.517197,186.420578 210.418701,187.598785 214.468140,189.090836 
	C210.770691,188.206116 206.925354,187.007538 202.847839,185.525665 
z"/>
<path fill="#3B3891" opacity="1.000000" stroke="none" 
	d="
M243.922287,194.683929 
	C246.699066,194.855804 249.694611,195.321625 252.903458,196.042130 
	C250.124863,195.857162 247.132950,195.417496 243.922287,194.683929 
z"/>
<path fill="#3B3891" opacity="1.000000" stroke="none" 
	d="
M255.321564,196.908508 
	C257.583588,197.121323 260.209930,197.469360 262.980286,198.115982 
	C260.644836,197.957611 258.165344,197.500671 255.321564,196.908508 
z"/>
<path fill="#3B3891" opacity="1.000000" stroke="none" 
	d="
M192.630341,172.086670 
	C193.059937,174.117462 193.209900,176.329178 193.282562,178.940277 
	C192.920410,176.982300 192.635544,174.624954 192.630341,172.086670 
z"/>
<path fill="#3B3891" opacity="1.000000" stroke="none" 
	d="
M193.754410,180.080429 
	C194.758972,180.518875 195.886841,181.213623 197.060883,182.264343 
	C196.030609,181.859131 194.954178,181.097931 193.754410,180.080429 
z"/>
<path fill="#3B3891" opacity="1.000000" stroke="none" 
	d="
M195.664703,168.045883 
	C195.168121,169.200851 194.363327,170.464767 193.229187,171.826065 
	C193.718719,170.667252 194.537613,169.411041 195.664703,168.045883 
z"/>
<path fill="#3B3891" opacity="1.000000" stroke="none" 
	d="
M200.613983,163.968445 
	C199.841309,164.922897 198.747406,165.927734 197.302185,166.956543 
	C198.064835,165.993286 199.178787,165.006058 200.613983,163.968445 
z"/>
<path fill="#3B3891" opacity="1.000000" stroke="none" 
	d="
M261.392212,259.072754 
	C262.275208,258.233154 263.477234,257.355743 265.011108,256.516113 
	C264.132385,257.380951 262.921844,258.207977 261.392212,259.072754 
z"/>
<path fill="#3B3891" opacity="1.000000" stroke="none" 
	d="
M204.227692,161.698456 
	C203.561935,162.399170 202.588120,163.165115 201.268860,163.928284 
	C201.922150,163.204880 202.920898,162.484268 204.227692,161.698456 
z"/>
<path fill="#3B3891" opacity="1.000000" stroke="none" 
	d="
M291.337280,237.999023 
	C291.921082,237.221085 292.806885,236.364243 294.017639,235.453125 
	C293.441498,236.239258 292.540405,237.079697 291.337280,237.999023 
z"/>
<path fill="#3B3891" opacity="1.000000" stroke="none" 
	d="
M251.287201,264.957214 
	C251.794327,264.353485 252.619690,263.729797 253.782837,263.112305 
	C253.282211,263.724762 252.443832,264.330994 251.287201,264.957214 
z"/>
<path fill="#3B3891" opacity="1.000000" stroke="none" 
	d="
M254.416168,263.109009 
	C254.929291,262.535248 255.753891,261.942169 256.923828,261.375549 
	C256.421997,261.964539 255.574829,262.527130 254.416168,263.109009 
z"/>
<path fill="#3B3891" opacity="1.000000" stroke="none" 
	d="
M257.667084,261.280823 
	C258.375671,260.593109 259.403625,259.858521 260.765808,259.109558 
	C260.062195,259.808075 259.024323,260.520996 257.667084,261.280823 
z"/>
<path fill="#3B3891" opacity="1.000000" stroke="none" 
	d="
M265.823608,256.311523 
	C266.488312,255.632645 267.453979,254.872177 268.752777,254.095276 
	C268.098816,254.795898 267.111694,255.512909 265.823608,256.311523 
z"/>
<path fill="#3B3891" opacity="1.000000" stroke="none" 
	d="
M271.945923,252.322708 
	C272.565704,251.632309 273.474976,250.854141 274.713196,250.055267 
	C274.106567,250.768005 273.170990,251.501480 271.945923,252.322708 
z"/>
<path fill="#3B3891" opacity="1.000000" stroke="none" 
	d="
M279.415497,247.136200 
	C279.856262,246.480621 280.606567,245.768402 281.694885,245.045898 
	C281.263641,245.716919 280.494324,246.398239 279.415497,247.136200 
z"/>
<path fill="#3B3891" opacity="1.000000" stroke="none" 
	d="
M275.333313,249.997894 
	C275.801666,249.368729 276.577301,248.693283 277.669983,248.001099 
	C277.204895,248.640121 276.422760,249.295868 275.333313,249.997894 
z"/>
<path fill="#3B3891" opacity="1.000000" stroke="none" 
	d="
M198.744080,183.602966 
	C199.553879,183.717972 200.564453,184.099655 201.797989,184.739044 
	C200.995590,184.621033 199.970200,184.245346 198.744080,183.602966 
z"/>
<path fill="#3B3891" opacity="1.000000" stroke="none" 
	d="
M264.386536,199.163635 
	C264.556702,199.787598 264.928528,200.657120 265.069336,201.711792 
	C264.754974,201.067688 264.671570,200.238434 264.386536,199.163635 
z"/>
<path fill="#3B3891" opacity="1.000000" stroke="none" 
	d="
M269.347565,254.067810 
	C269.624603,253.580917 270.181549,253.072021 271.045319,252.609863 
	C270.777252,253.119675 270.202362,253.582733 269.347565,254.067810 
z"/>
<path fill="#3B3891" opacity="1.000000" stroke="none" 
	d="
M282.324097,244.984375 
	C282.566711,244.476166 283.100952,243.916428 283.946228,243.327896 
	C283.710114,243.843689 283.162933,244.388245 282.324097,244.984375 
z"/>
<path fill="#3B3891" opacity="1.000000" stroke="none" 
	d="
M288.168823,240.519135 
	C288.410156,240.093246 288.901672,239.558014 289.679443,238.998611 
	C289.450134,239.452881 288.934570,239.931351 288.168823,240.519135 
z"/>
<path fill="#3B3891" opacity="1.000000" stroke="none" 
	d="
M285.857025,242.306320 
	C285.934052,241.979568 286.266418,241.571793 286.883392,241.131378 
	C286.816101,241.474258 286.464233,241.849777 285.857025,242.306320 
z"/>
<path fill="#3B3891" opacity="1.000000" stroke="none" 
	d="
M295.852844,234.300262 
	C295.907867,233.966934 296.211945,233.543823 296.798523,233.079056 
	C296.754639,233.428421 296.428253,233.819443 295.852844,234.300262 
z"/>
<path fill="#3B3891" opacity="1.000000" stroke="none" 
	d="
M286.018127,139.675201 
	C285.794678,139.951187 285.504639,139.853485 285.108185,139.450806 
	C285.277069,139.320312 285.593689,139.372208 286.018127,139.675201 
z"/>
<path fill="#3B3891" opacity="1.000000" stroke="none" 
	d="
M284.515564,243.247665 
	C284.341187,242.922318 284.517853,242.713058 285.054932,242.645630 
	C285.200867,242.965042 285.017944,243.157120 284.515564,243.247665 
z"/>
<path fill="#3B3891" opacity="1.000000" stroke="none" 
	d="
M205.677002,160.888947 
	C205.779160,161.209579 205.536301,161.412689 204.948517,161.487839 
	C204.829163,161.138199 205.071945,160.942062 205.677002,160.888947 
z"/>
<path fill="#3B3891" opacity="1.000000" stroke="none" 
	d="
M294.650696,235.278656 
	C294.417694,234.961563 294.554108,234.738602 295.076233,234.643555 
	C295.255890,234.950180 295.108612,235.150620 294.650696,235.278656 
z"/>
<path fill="#3B3891" opacity="1.000000" stroke="none" 
	d="
M249.309387,266.028412 
	C249.299255,265.794159 249.581039,265.556244 250.140991,265.291504 
	C250.146530,265.518036 249.873932,265.771393 249.309387,266.028412 
z"/>
<path fill="#3B3891" opacity="1.000000" stroke="none" 
	d="
M298.341095,232.075195 
	C298.279144,231.858459 298.484741,231.572449 298.944183,231.197052 
	C299.001556,231.407089 298.805115,231.706497 298.341095,232.075195 
z"/>
</svg>